<?xml version="1.0" standalone="no"?>
<!DOCTYPE svg PUBLIC "-//W3C//DTD SVG 1.1//EN" "http://www.w3.org/Graphics/SVG/1.1/DTD/svg11.dtd" >
<!--
2013-9-30: Created.
-->
<svg>
<metadata>
Created by iconfont
</metadata>
<defs>

<font id="iconfont" horiz-adv-x="1024" >
  <font-face
    font-family="iconfont"
    font-weight="500"
    font-stretch="normal"
    units-per-em="1024"
    ascent="896"
    descent="-128"
  />
    <missing-glyph />
    
    <glyph glyph-name="x" unicode="x" horiz-adv-x="1001"
d="M281 543q-27 -1 -53 -1h-83q-18 0 -36.5 -6t-32.5 -18.5t-23 -32t-9 -45.5v-76h912v41q0 16 -0.5 30t-0.5 18q0 13 -5 29t-17 29.5t-31.5 22.5t-49.5 9h-133v-97h-438v97zM955 310v-52q0 -23 0.5 -52t0.5 -58t-10.5 -47.5t-26 -30t-33 -16t-31.5 -4.5q-14 -1 -29.5 -0.5
t-29.5 0.5h-32l-45 128h-439l-44 -128h-29h-34q-20 0 -45 1q-25 0 -41 9.5t-25.5 23t-13.5 29.5t-4 30v167h911zM163 247q-12 0 -21 -8.5t-9 -21.5t9 -21.5t21 -8.5q13 0 22 8.5t9 21.5t-9 21.5t-22 8.5zM316 123q-8 -26 -14 -48q-5 -19 -10.5 -37t-7.5 -25t-3 -15t1 -14.5
t9.5 -10.5t21.5 -4h37h67h81h80h64h36q23 0 34 12t2 38q-5 13 -9.5 30.5t-9.5 34.5q-5 19 -11 39h-368zM336 498v228q0 11 2.5 23t10 21.5t20.5 15.5t34 6h188q31 0 51.5 -14.5t20.5 -52.5v-227h-327z" />
    

    
    <glyph glyph-name="choose" unicode="&#58922;" d="M832 480l-416-448-224 288 82 70 142-148 352 302 64-64z"  horiz-adv-x="1024" />

    
    <glyph glyph-name="he" unicode="&#58909;" d="M470.063104 720.538368l80-35.2c6.4-2.1504 6.4-6.4 0-12.8l-9.6-9.6c72.500224-117.3504 190.900224-210.1504 355.2-278.4 4.248576-8.5504 4.248576-12.8 0-12.8-29.899776-2.1504-60.8-21.3504-92.8-57.6-128 93.850624-219.751424 206.900224-275.2 339.2l0-3.2c-96-149.3504-237.899776-284.8-425.6-406.4-4.299776-2.1504-7.499776-2.1504-9.6 0 0 4.2496 1.048576 7.4496 3.2 9.6C259.912704 381.338368 384.712704 537.038592 470.063104 720.538368zM614.063104 259.738368l35.2 44.8 76.8-41.6c2.100224-2.1504 3.2-5.3504 3.2-9.6l-22.4-28.8 3.2-179.2 6.4-16c2.100224-6.4 2.100224-9.6 0-9.6 0-2.100224-3.2-3.2-9.6-3.2-89.6 8.5504-200.551424 10.699776-332.8 6.4-10.699776-38.4-30.951424-68.2496-60.8-89.6-6.4-2.100224-10.699776 0-12.8 6.4l3.2 150.4 3.2 105.6-3.2 86.4c0 4.2496 1.048576 6.4 3.2 6.4 0 2.100224 2.100224 2.100224 6.4 0l60.8-32L614.063104 259.738368zM460.463104 384.538368c-32-2.1504-61.899776-5.3504-89.6-9.6l-22.4 25.6 227.2 3.2 38.4 41.6 57.6-48c2.100224-6.4 1.048576-9.6-3.2-9.6L460.463104 384.538368zM374.063104 237.338368l0-198.4 246.4 3.2-3.2 198.4L374.063104 237.338368z"  horiz-adv-x="1024" />

    
    <glyph glyph-name="android" unicode="&#58924;" d="M862.778202 171.825407c-17.774874 0-32.175395 13.876101-32.175395 30.980825L830.602807 397.192742c0 17.134486 14.399495 30.981851 32.175395 30.981851 17.773847 0 32.203104-13.847365 32.203104-30.981851l0-194.385484C894.981306 185.701508 880.553076 171.825407 862.778202 171.825407zM380.771249 660.320394 380.771249 660.320394l-56.204315 70.516577c-3.83925 4.829593-2.675467 11.578298 2.619023 15.097354 5.293464 3.520082 12.682557 2.443532 16.523859-2.385035l58.093665-72.901612c33.367912 14.662218 70.603809 22.865138 109.905574 22.865138 39.302791 0 76.509952-8.203946 109.875812-22.865138l58.094691 72.901612c3.83925 4.829593 11.258104 5.905117 16.552594 2.385035 5.265755-3.520082 6.429537-10.268787 2.589261-15.097354l-56.204315-70.516577c64.726402-35.578483 111.504491-96.640099 124.53803-168.465162L256.233218 491.855233C269.295493 563.680295 316.042794 624.741912 380.771249 660.320394zM622.341222 557.250758 622.341222 557.250758c17.716377 0 32.058401 13.439939 32.058401 29.992534 0 16.552594-14.34305 29.963798-32.058401 29.963798-17.65788 0-32.028639-13.411204-32.028639-29.963798C590.312583 570.690697 604.683343 557.250758 622.341222 557.250758zM401.01839 557.250758 401.01839 557.250758c17.716377 0 32.028639 13.439939 32.028639 29.992534 0 16.552594-14.312263 29.963798-32.028639 29.963798-17.687641 0-32.029665-13.411204-32.029665-29.963798C368.988724 570.690697 383.330748 557.250758 401.01839 557.250758zM161.221798 171.825407 161.221798 171.825407c-17.803609 0-32.20413 13.876101-32.20413 30.980825L129.017668 397.192742c0 17.134486 14.400521 30.981851 32.20413 30.981851 17.773847 0 32.175395-13.847365 32.175395-30.981851l0-194.385484C193.397193 185.701508 178.995645 171.825407 161.221798 171.825407zM766.691258 93.280375 766.691258 93.280375c0-31.011613-25.658625-56.117082-57.3096-56.117082l-40.116617 0 0-131.868626c0-29.440404-24.349114-53.294859-54.42888-53.294859-30.079766 0-54.42888 23.854455-54.42888 53.294859L560.407282 37.163293l-97.425191 0 0-131.868626c0-29.440404-24.378875-53.294859-54.429906-53.294859-30.050004 0-54.42888 23.854455-54.42888 53.294859L354.123306 37.163293l-40.116617 0c-31.621213 0-57.308573 25.10547-57.308573 56.117082L256.698115 427.651199l509.992117 0L766.690232 93.280375z"  horiz-adv-x="1024" />

    
    <glyph glyph-name="cunqianguan1" unicode="&#58883;" d="M297.462 637.798c-4.646 4.263-8.521 8.909-12.010 14.331-3.099 5.423-5.423 11.231-6.967 17.428-1.551 6.197-1.551 12.393 0 18.59 1.551 6.197 4.646 12.010 9.299 17.044 5.423 5.423 10.070 7.747 13.946 6.967 4.263-0.774 8.521-1.934 13.557-4.263 5.037-2.324 10.839-5.037 17.812-7.747 6.967-3.099 15.878-4.263 26.337-4.263 9.299 0 16.657 2.711 22.464 7.747 5.423 5.423 10.839 10.839 15.878 17.044 5.037 6.197 10.458 12.010 16.267 17.044 5.806 5.423 13.946 7.747 23.627 7.747 10.070 0 17.812-2.711 23.243-7.747 5.423-5.423 10.839-10.839 15.492-17.044 4.646-6.197 10.070-11.619 16.267-16.657 6.197-5.037 14.331-7.358 25.172-7.358 8.909 0 15.878 2.324 21.69 7.358 5.423 5.037 10.839 10.458 16.267 16.657 5.423 6.197 10.839 12.010 17.044 17.044 6.197 5.423 14.331 7.747 24.014 7.747s17.812-2.711 23.627-7.747c5.806-5.423 11.231-10.839 15.878-17.044 4.646-6.197 9.678-12.010 15.492-17.044 5.423-5.423 13.169-7.747 23.243-7.747 10.458 0 18.974 1.551 25.954 4.263 6.586 3.099 12.393 5.423 17.428 7.747 5.037 2.324 9.678 3.872 13.557 4.263 4.263 0.774 8.909-1.934 13.946-6.967 4.646-5.423 7.747-10.839 8.909-17.044 1.162-6.197 1.162-12.393 0-18.59-1.162-6.197-3.487-12.010-6.967-17.428-3.487-5.423-7.358-10.458-11.231-14.331-4.646-4.263-12.010-11.231-21.69-20.917-9.678-10.070-19.366-20.139-29.436-30.596-11.619-12.393-24.014-25.561-36.795-39.504h-263.372c-13.557 13.946-25.561 27.114-36.795 39.504-10.070 10.458-19.756 20.917-29.436 30.596-9.678 9.678-17.044 16.657-21.69 20.917v0zM675.869 506.891c44.541-25.172 84.433-55.388 119.296-90.242 14.721-15.104 29.436-32.146 43.765-50.351 14.721-18.59 27.5-38.731 38.731-61.582 11.231-22.464 20.139-46.864 27.114-72.818 6.967-25.954 10.458-53.835 10.458-83.66 0-49.573-7.747-94.117-22.85-133.621-15.104-39.122-39.122-72.428-71.65-99.929-32.535-27.5-73.593-48.414-123.939-63.134-49.961-14.721-109.998-22.077-179.711-22.077-70.103 0-130.525 7.358-180.876 22.077-50.351 14.721-91.791 35.633-124.33 63.134-32.535 27.5-56.161 60.806-71.65 99.929-15.104 39.122-22.85 83.66-22.85 133.621 0 29.827 3.487 57.71 10.070 83.66 6.586 25.954 15.878 50.351 27.114 72.818 11.231 22.464 24.014 42.993 38.345 61.582 13.946 18.59 28.661 35.242 43.765 50.351 35.242 35.242 75.14 65.071 120.453 90.242h318.758zM716.147 227.638h-110.773l70.103 94.117-32.535 24.4-70.491-94.896 31.757-23.627h-135.171l33.31 24.4-71.268 95.666-33.31-24.4 71.268-95.666h-110.773v-39.504h159.961v-79.788h-159.961v-40.276h159.961v-79.788h38.731v79.788h159.961v40.276h-159.961v79.788h159.961v39.504h-0.774zM716.147 227.638z"  horiz-adv-x="1024" />

    
    <glyph glyph-name="user" unicode="&#58906;" d="M910.613-115.233c0-19.942-16.192-36.168-36.134-36.168-20.007 0-36.23 16.225-36.23 36.168l-0.314 3.376c0 1.407 0.281 2.782 0.438 4.253-22.631 158.734-158.766 275.487-324.597 277.332-1.344-0.064-2.563-0.219-3.907-0.219-1.344 0-2.562 0.155-3.907 0.219-163.893-1.845-298.778-115.972-323.629-272.050 0.845-3.032 1.407-6.189 1.407-9.534l0.343-3.376c0-20.317-16.441-36.792-36.73-36.792-20.255 0-36.761 16.475-36.761 36.792l-0.031 0.344h-0.688c0.094 1.062 0.312 2.064 0.438 3.096 0 3.063 0.469 5.939 1.155 8.752 18.849 146.418 116.942 264.765 250.481 315.782-77.742 49.827-128.475 137.822-128.475 238.352 0 155.546 120.88 281.647 276.395 281.647 155.546 0 276.426-126.101 276.426-281.647 0-100.53-50.671-188.464-128.382-238.29 132.602-50.639 230.287-167.612 250.169-312.593 1.344-3.75 2.22-7.814 2.22-12.067l0.313-3.376zM722.682 451.030c0 117.598-95.31 212.94-212.875 212.94-117.598 0-212.908-95.342-212.908-212.94 0-117.566 95.31-212.875 212.908-212.875 117.566-0.001 212.875 95.309 212.875 212.875v0zM722.682 451.030z"  horiz-adv-x="1024" />

    
    <glyph glyph-name="xuanze" unicode="&#58912;" d="M281.612 44.038 76.822 44.038c-42.34 0-76.796 34.456-76.796 76.797L0.026 735.204C0.026 777.544 34.482 812 76.822 812l716.765 0c42.34 0 76.796-34.456 76.796-76.796l0-358.382c0-14.13-11.469-25.599-25.599-25.599-14.131 0-25.599 11.469-25.599 25.599L819.185 735.204c0 14.131-11.469 25.599-25.599 25.599L76.822 760.803c-14.13 0-25.599-11.468-25.599-25.599l0-614.369c0-14.131 11.469-25.6 25.599-25.6l204.79 0c14.131 0 25.599-11.468 25.599-25.599C307.21 55.507 295.742 44.038 281.612 44.038L281.612 44.038zM665.592-211.949c-10.137 0-19.762 6.093-23.756 16.076l-86.882 217.18L403.256-152.048c-7.014-8.038-18.277-10.854-28.261-7.116s-16.588 13.312-16.588 23.96L358.407 632.758c0 10.137 5.99 19.301 15.257 23.397 9.267 4.096 20.069 2.355 27.596-4.454l563.172-511.974c7.833-7.116 10.495-18.329 6.655-28.159-3.84-9.829-13.312-16.383-23.858-16.383L729.076 95.185l88.367-220.865c5.273-13.107-1.126-28.006-14.284-33.278l-127.993-51.198c-3.123-1.229-6.349-1.843-9.523-1.843L665.592-211.949zM563.198 95.235c1.434 0 2.867-0.102 4.301-0.357 8.806-1.485 16.127-7.476 19.454-15.718l92.872-232.231 80.482 32.203-92.872 232.231c-3.174 7.884-2.201 16.844 2.561 23.857 4.761 7.015 12.696 11.264 21.195 11.264L880.98 146.484 409.605 575.007l0-641.965 134.343 153.541c4.914 5.581 11.929 8.755 19.25 8.755L563.198 95.235z"  horiz-adv-x="1024" />

    
    <glyph glyph-name="qq" unicode="&#58919;" d="M967.296 115.296c-7.168 98.944-73.536 181.76-111.872 224.64 5.312 12.48 18.24 84.608-31.744 133.888 0.064 1.216 0.064 2.368 0.064 3.52C823.744 671.584 685.504 811.36 512 812 338.496 811.36 200.256 671.584 200.256 477.344c0-1.152 0-2.304 0.064-3.52-50.048-49.28-37.056-121.408-31.808-133.888-38.336-42.816-104.704-125.696-111.872-224.64-1.344-25.984 2.688-63.872 15.424-80.704 15.488-20.48 57.984 4.096 88.32 69.696 8.448-30.4 27.968-76.736 72.064-135.616C158.656-48.16 137.536-120.992 162.432-160.8 179.968-188.896 220.032-212 289.216-212c123.008 0 177.344 33.088 201.6 56.128C495.808-150.88 502.912-148.448 512-148.448c9.088 0 16.192-2.432 21.12-7.424C557.376-178.912 611.776-212 734.72-212c69.184 0 109.248 23.104 126.784 51.2 24.896 39.808 3.776 112.64-70.08 129.472 44.096 58.88 63.616 105.28 72.064 135.616 30.464-65.536 72.896-90.176 88.384-69.696C964.608 51.424 968.64 89.312 967.296 115.296L967.296 115.296zM967.296 115.296"  horiz-adv-x="1024" />

    
    <glyph glyph-name="cunqianguan2" unicode="&#58918;" d="M877.4201 6.112c-25.472-12.16 0.896-92.16-29.568-118.016-18.176-22.016-102.784-8.832-112-13.056-26.112 5.888 11.264 53.888-19.584 49.024-49.408-14.208-83.584-16.128-141.056-16.128-20.48 0-40.576 1.024-60.416 2.944-5.504 0.512 0-30.08-18.688-35.84-34.304-1.28-67.456-2.176-81.152 0.512-43.52-1.152-18.688 53.76-29.824 62.208-6.656 2.176-13.184 4.48-19.584 6.784-10.88-2.816 4.992-21.504-10.88-34.688-26.752-11.776-114.944-8.96-125.184 11.904-16.256 55.552 19.456 79.488 10.112 88.704-35.968 25.6-67.456 55.424-93.312 88.32-52.096 57.344-84.352 10.624-131.712 53.248-29.056 39.168-7.296 144.768 2.304 157.184 19.968 25.856 34.048-7.552 50.56 36.224 6.912 96.384 54.528 183.936 129.024 251.52C160.2361 634.08 91.3721 688.608 168.1721 732.384c74.496 15.104 218.752-56.704 218.752-56.704s85.888 26.496 180.352 26.496c268.672 0 456.192-177.024 456.192-395.264C1023.3401 175.712 994.7961 81.248 877.4201 6.112L877.4201 6.112zM271.7241 508.768c-30.464 0-55.168-24.704-55.168-55.168 0-30.464 24.704-55.296 55.168-55.296 30.464 0 55.168 24.704 55.168 55.296C326.8921 484.064 302.1881 508.768 271.7241 508.768L271.7241 508.768zM768.1081 541.92c0 0-108.672 37.12-222.592 31.744-17.536 0-31.872-14.208-31.872-31.744 0-17.536 14.208-31.872 31.872-31.872 0 0 116.608 10.624 222.592-31.744 17.536 0 31.872 14.208 31.872 31.744C799.8521 527.712 785.6441 541.92 768.1081 541.92L768.1081 541.92zM768.1081 541.92"  horiz-adv-x="1025" />

    
    <glyph glyph-name="yonghuxinxi1" unicode="&#59066;" d="M511.446391 668.924397c123.450636 0.010233 246.87876 0.065492 370.328373-0.072655 13.9405-0.011256 28.02631-0.122797 41.815361-1.930979 66.526159-8.727779 99.369172-45.001937 99.5636-112.11752 0.512676-166.912497 0.556679-333.830111 0.00614-500.736469-0.239454-72.689532-48.418756-122.365932-120.93535-122.576733-260.845867-0.763386-521.695826-0.835018-782.542716 0.055259-72.300676 0.243547-118.104885 46.543036-118.516254 118.581746-0.945535 166.121482-0.962931 332.266499-0.022513 498.395144 0.457418 80.721463 40.419572 119.766734 121.370255 120.212896C252.157997 669.43605 381.804752 668.918257 511.446391 668.924397L511.446391 668.924397 511.446391 668.924397zM398.887826 101.294402c0 33.014928 1.529843 63.276139-0.388856 93.315292-2.39863 37.492916-31.340799 71.565942-68.585051 74.469062-48.457642 3.771907-97.604992 3.822049-146.100496 0.433882-33.538861-2.342348-59.022255-25.25622-64.87352-58.192354-6.375198-35.831067-4.439102-73.14695-6.130627-110.026906L398.887826 101.293379 398.887826 101.294402 398.887826 101.294402zM343.67841 416.623138c-0.145309 47.839565-37.644365 84.86483-86.213547 85.110423-49.218982 0.25071-87.590917-37.677111-87.502913-86.49598 0.090051-48.5129 39.051411-87.052658 87.525426-86.591147C306.278615 329.107945 343.827813 367.436902 343.67841 416.623138L343.67841 416.623138 343.67841 416.623138zM681.924087 212.667979c45.041846 0 90.061179-0.24457 135.097908 0.099261 25.944905 0.189312 38.260395 10.029424 39.223327 29.833469 1.046842 21.599947-10.485819 34.317597-37.142945 34.562167-90.829681 0.855484-181.681876 0.867764-272.499277-0.105401-26.391067-0.284479-37.805024-13.300934-36.809347-35.029818 0.912789-20.020986 12.665461-29.126364 39.372729-29.288047C593.414241 212.466388 637.672234 212.667979 681.924087 212.667979L681.924087 212.667979 681.924087 212.667979zM682.358993 95.735803l0-0.166799c44.975331 0 89.944522-0.310062 134.919852 0.116657 25.838482 0.25071 38.666648 10.708899 38.990013 29.995151 0.312108 19.09694-12.95608 32.775474-36.96489 32.958646-91.475388 0.706081-182.967148 0.451278-274.441513-0.283456-8.460696-0.072655-20.310581-3.765767-24.481577-9.912767-5.813403-8.562003-11.236925-24.353664-7.109931-31.03483 6.169513-9.969049 20.532639-20.136619 31.897478-20.715811C590.799694 94.390155 636.615159 95.735803 682.358993 95.735803L682.358993 95.735803 682.358993 95.735803zM731.399919 328.473495c28.620851 0 57.242725-0.333598 85.856413 0.099261 24.165376 0.373507 39.307238 12.227486 38.85596 30.518061-0.589424 23.826662-18.690688 29.488615-36.947494 29.800723-59.538001 1.033539-119.109772 1.033539-178.64368-0.028653-22.986527-0.411369-37.811164-14.713097-35.458583-31.379685 3.037173-21.449521 17.929348-29.098735 38.154995-29.037337C672.612001 328.534893 702.006472 328.468378 731.399919 328.473495L731.399919 328.473495 731.399919 328.473495zM731.399919 328.473495"  horiz-adv-x="1024" />

    
    <glyph glyph-name="qiang" unicode="&#58960;" d="M1080.888889 384 1183.288889 284.444444 1282.844444 384 1183.288889 483.555556ZM657.066667 716.8l5.688889 2.844444 2.844444 5.688889c11.377778 19.911111 14.222222 34.133333 8.533333 51.2-5.688889 14.222222-17.066667 25.6-34.133333 31.288889l-2.844444 0c-51.2 8.533333-65.422222-5.688889-68.266667-17.066667C560.355556 762.311111 551.822222 742.4 543.288889 725.333333c-8.533333-19.911111-19.911111-42.666667-39.822222-73.955556l-22.755556-42.666667c-48.355556-96.711111-110.933333-184.888889-184.888889-267.377778-11.377778-14.222222-14.222222-34.133333-5.688889-54.044444l2.844444-2.844444c5.688889-8.533333 14.222222-11.377778 22.755556-11.377778 14.222222 0 31.288889 8.533333 51.2 31.288889 51.2 45.511111 113.777778 136.533333 190.577778 281.6C614.4 688.355556 642.844444 711.111111 657.066667 716.8zM312.888889 526.222222c45.511111 39.822222 71.111111 71.111111 71.111111 99.555556 0 14.222222-5.688889 28.444444-17.066667 39.822222L364.088889 668.444444c-19.911111 11.377778-34.133333 17.066667-39.822222 17.066667 11.377778 56.888889-11.377778 105.244444-65.422222 133.688889C238.933333 827.733333 224.711111 827.733333 213.333333 816.355556 204.8 804.977778 201.955556 790.755556 204.8 768l0-59.733333 0-5.688889c0-2.844444 2.844444-14.222222 2.844444-56.888889 0-14.222222-2.844444-17.066667-2.844444-17.066667L201.955556 628.622222C187.733333 617.244444 173.511111 608.711111 159.288889 603.022222c-34.133333-17.066667-42.666667-25.6-45.511111-28.444444-19.911111-14.222222-31.288889-28.444444-31.288889-42.666667 0-14.222222 5.688889-25.6 22.755556-36.977778 19.911111-8.533333 51.2-14.222222 93.866667-14.222222l2.844444 0 0-99.555556C201.955556 375.466667 201.955556 372.622222 199.111111 372.622222c-8.533333-5.688889-25.6-19.911111-56.888889-62.577778-39.822222-48.355556-79.644444-93.866667-116.622222-133.688889-17.066667-14.222222-25.6-28.444444-25.6-39.822222 0-5.688889 2.844444-14.222222 11.377778-19.911111 25.6-34.133333 56.888889-34.133333 88.177778 0 28.444444 39.822222 62.577778 91.022222 96.711111 156.444444-5.688889-122.311111-11.377778-162.133333-14.222222-173.511111l0-2.844444c0-2.844444 0-5.688889 0-8.533333 0 0-2.844444 2.844444-5.688889 5.688889L173.511111 96.711111c-17.066667 8.533333-28.444444 8.533333-39.822222 5.688889-5.688889-2.844444-8.533333-8.533333-11.377778-14.222222-2.844444-11.377778 2.844444-22.755556 8.533333-28.444444 14.222222-25.6 22.755556-48.355556 28.444444-65.422222l2.844444-11.377778 5.688889 0c0 0 0-2.844444 2.844444-2.844444 8.533333-17.066667 17.066667-31.288889 31.288889-34.133333 2.844444 0 5.688889 0 8.533333 0 11.377778 0 22.755556 8.533333 34.133333 25.6l2.844444 2.844444c11.377778 48.355556 14.222222 113.777778 8.533333 196.266667-2.844444 31.288889 0 71.111111 5.688889 122.311111 5.688889 48.355556 14.222222 113.777778 25.6 196.266667C284.444444 492.088889 287.288889 506.311111 312.888889 526.222222zM870.4 463.644444c-110.933333 68.266667-201.955556 108.088889-270.222222 119.466667L600.177778 583.111111l-2.844444 0c-14.222222-2.844444-22.755556-11.377778-25.6-22.755556-2.844444-17.066667 14.222222-31.288889 34.133333-42.666667 65.422222-39.822222 130.844444-79.644444 187.733333-119.466667 5.688889-5.688889 14.222222-11.377778 25.6-14.222222 28.444444-17.066667 48.355556-25.6 65.422222-25.6 14.222222 0 25.6 8.533333 31.288889 19.911111C930.133333 403.911111 915.911111 432.355556 870.4 463.644444zM756.622222 179.2l-2.844444 2.844444-2.844444 0c-8.533333 0-14.222222-2.844444-22.755556-14.222222-28.444444-36.977778-62.577778-56.888889-99.555556-59.733333-48.355556-5.688889-88.177778 0-116.622222 19.911111L506.311111 128c0 0 0 2.844444 2.844444 11.377778l0 5.688889c5.688889 8.533333 8.533333 19.911111 8.533333 25.6 2.844444 2.844444 8.533333 5.688889 14.222222 11.377778 17.066667 8.533333 48.355556 28.444444 88.177778 62.577778l11.377778 8.533333c2.844444 0 2.844444 2.844444 5.688889 2.844444 11.377778 5.688889 19.911111 14.222222 28.444444 22.755556l42.666667 34.133333-28.444444-11.377778c5.688889 11.377778 11.377778 25.6 11.377778 39.822222 0 22.755556-11.377778 54.044444-62.577778 71.111111-45.511111 8.533333-91.022222 2.844444-128-17.066667-17.066667-5.688889-25.6-14.222222-31.288889-25.6-5.688889-11.377778-2.844444-22.755556 0-34.133333 5.688889-31.288889 28.444444-36.977778 36.977778-36.977778 8.533333 0 19.911111 2.844444 31.288889 8.533333l5.688889 0c5.688889 2.844444 11.377778 2.844444 14.222222 5.688889-17.066667-19.911111-34.133333-36.977778-51.2-51.2l-2.844444-2.844444c0 0-2.844444-2.844444-2.844444-2.844444l-2.844444 0c-22.755556 2.844444-36.977778-2.844444-48.355556-14.222222-8.533333-11.377778-14.222222-25.6-11.377778-42.666667l0-51.2c0-34.133333 8.533333-65.422222 28.444444-91.022222 19.911111-28.444444 65.422222-42.666667 145.066667-42.666667 8.533333 0 17.066667 0 25.6 0 2.844444 0 8.533333 0 11.377778 0 54.044444 0 93.866667 45.511111 116.622222 130.844444C773.688889 159.288889 770.844444 170.666667 756.622222 179.2z"  horiz-adv-x="1283" />

    
    <glyph glyph-name="shandian1" unicode="&#59095;" d="M808.421047 438.583089 610.472074 438.583089 676.790005 871.852499 215.578953 305.269426 445.682069 305.269426 380.368958-127.999982 808.421047 438.583089Z"  horiz-adv-x="1024" />

    
    <glyph glyph-name="iconfontyoujiantou" unicode="&#59015;" d="M267.354606 823.994036c-13.515828-12.812817-13.515828-33.603329 0-46.417169l414.889265-393.579937-414.889265-393.565611c-13.515828-12.821003-13.515828-33.604352 0-46.425356 13.508665-12.81998 35.418674-12.81998 48.927339 0l432.159604 410.009118c0 0 18.33867 16.991999 18.33867 29.981848 0 11.971659-18.33867 29.989011-18.33867 29.989011L316.282968 823.994036C302.77328 836.815039 280.863271 836.815039 267.354606 823.994036z"  horiz-adv-x="1024" />

    
    <glyph glyph-name="baoma" unicode="&#58929;" d="M519.9257 772.682891c-205.032871 2.635926-361.578626-162.632758-363.917575-353.889996-2.41473-197.397492 157.839141-362.652863 358.319048-362.175652 197.977109 0.006144 357.705637 158.279486 358.249412 357.783466C873.122408 613.95794 712.813238 770.201597 519.9257 772.682891zM506.74402 69.014494C324.933721 72.490148 168.056171 221.765089 168.412544 415.225076c0.192523 191.556263 155.499167 342.197297 340.188095 345.154778 191.79794 3.072175 351.290936-151.721416 351.654476-344.713409C860.618655 221.945323 700.84302 65.303306 506.74402 69.014494zM514.334341 746.07171c-184.450322-0.010241-334.041696-150.533508-331.606486-335.964878 2.370695-180.609079 149.901664-327.292128 331.942377-326.777026 183.286991 0.245774 330.185093 147.0896 331.22656 331.111865C846.931091 596.755807 697.533263 746.081951 514.334341 746.07171zM466.271185 727.994008 466.271185 727.994008l25.86669 0 23.831886-61.149598 22.886681 61.149598 26.558954 0c0 0 0-57.844961 0-86.97635-5.625153 0-11.04959 0-17.33014 0 0 15.345515 0 48.310978 0 58.21567l-22.464768-58.162419-19.405906 0-22.577415 59.777359 0-59.777359-17.365982 0L466.271185 727.994008zM245.330592 584.483492c16.231325 19.000379 31.880985 37.85739 48.193211 56.123519 5.810507 6.506867 13.824788 10.982002 22.870296 6.617465 9.448987-4.558084 15.946637-11.869861 15.473522-23.391541-0.03789-0.933941 0.089093-1.874027 0.049155-1.122368 7.298464-0.59293 14.734152 0.440345 20.752543-2.008178 15.116126-6.149471 17.956864-22.852887 6.689149-37.041215-11.174525-14.073634-22.99011-27.636263-34.548657-41.403704-3.8607-4.60007-7.793084-9.139721-12.136116-14.223147C290.082967 546.970185 268.020653 565.462631 245.330592 584.483492zM514.541201 202.762661c-114.962841-0.784429-211.926832 94.615825-212.087609 208.932485-0.16897 119.921332 93.061304 214.308792 212.018997 214.646731 114.831761 0.326675 209.979073-94.032112 211.856172-206.926355C728.244774 304.080949 636.721605 203.595221 514.541201 202.762661zM711.616114 526.226859l-15.624059 20.279428 30.608081 45.12206-50.694986-20.736158-17.240023 19.702883c0 0 40.686863 51.934096 55.174217 70.49925 0.750635-0.573473 15.136607-15.783812 15.136607-15.783812l-33.92603-43.8553 50.722635 21.412036 14.722887-18.504735-32.42476-45.825588c0 0 34.373543 16.185243 50.377528 23.711048 4.607239-5.681476 13.744911-16.953286 13.744911-16.953286L711.616114 526.226859zM514.16742 414.927075c0 66.34567 0 131.835227 0 197.297134-108.616751 2.088055-200.544423-91.377753-197.516282-198.029336 65.532567 0 131.090736 0 197.336048 0 0-65.975985 0-131.268922 0-197.088226 112.947494-2.292867 202.219783 96.692615 197.661699 197.8235C646.163423 414.927075 580.634952 414.927075 514.16742 414.927075zM342.722639 586.787623c3.998948 4.974876 2.765982 11.829922-2.058357 15.57388-4.759823 3.692754-10.886765 3.365056-15.012696-1.40296-8.893947-10.276426-17.518567-20.784289-26.607085-31.61985 5.631297-4.771088 10.950256-9.277969 17.029067-14.427958C325.314671 565.918337 334.21169 576.197835 342.722639 586.787623zM311.79198 622.512923c-5.020958 4.169966-11.122298 3.851484-15.423343-1.170499-8.030666-9.378327-15.877001-18.91231-24.501621-29.220482 5.557565-4.690187 10.653279-8.989184 16.103318-13.588231 8.630764 10.247752 16.985032 19.941489 25.066901 29.85847C317.039255 613.30459 316.332655 618.74234 311.79198 622.512923z"  horiz-adv-x="1025" />

    
    <glyph glyph-name="lilvdi" unicode="&#58916;" d="M43.794587-54.842652l936.410826 0 0-73.157348L43.794587-128 43.794587-54.842652 43.794587-54.842652 43.794587-54.842652zM43.794587-54.842652M126.725863 458.166984l171.924402 0 0-468.202726-171.924402 0L126.725863 458.166984 126.725863 458.166984 126.725863 458.166984zM126.725863 458.166984M386.434245 630.09273 558.353274 630.09273l0-640.128472L386.434245-10.035742 386.434245 630.09273 386.434245 630.09273 386.434245 630.09273zM386.434245 630.09273M420.663818 864.873902l51.729942-51.729942L216.437759 557.190646 164.709161 608.920588 420.663818 864.873902 420.663818 864.873902 420.663818 864.873902zM420.663818 864.873902M771.484019 576.307241l-51.731285-51.728598L400.059974 844.271402l51.731285 51.728598L771.484019 576.307241 771.484019 576.307241 771.484019 576.307241zM771.484019 576.307241M925.444546 382.397882l-60.056925 0-67.529446-109.770281c-18.008211-29.746329-29.023528-49.521235-33.045953-59.322033l-1.151375 0c-11.877842 23.833606-45.402079 80.191889-100.574056 169.092314l-63.505678 0 118.103982-178.977752-96.836452 0 0-39.54847 113.502511 0 0-54.505603-113.502511 0 0-40.053624 113.502511 0 0-79.349517 56.319322 0 0 79.349517 109.484116 0 0 40.053624-109.480086 0 0 54.505603 109.480086 0 0 39.54847-93.962715 0L925.444546 382.397882 925.444546 382.397882zM925.444546 382.397882M657.508598 491.653604 812.824712 646.969718 840.492653 463.985662 663.089478 486.072725Z"  horiz-adv-x="1024" />

    
    <glyph glyph-name="moneypig" unicode="&#58898;" d="M879.886936-127.996575 706.030252-127.996575c-11.771901 0-21.300608 9.54889-21.300608 21.300608l0 89.153676c-20.488293 0.041833-50.691462 0.041833-66.9166-0.041833-19.053012-0.043056-62.840347-0.043056-89.257035-0.021528l0-89.090315c0-11.751718-9.526873-21.300608-21.300486-21.300608L330.529622-127.996575c-8.736086 0-26.188564 4.88918-34.904835 13.687892-7.362453 7.113413-11.606526 17.202216-11.606526 28.081805L284.018261 49.83178C194.531879 106.077832 127.136281 184.624321 92.793987 272.736336l-80.437895 37.234262C4.825819 313.465718 0 320.995869 0 329.295401L0 510.701317c0 11.752207 9.527484 21.30122 21.300608 21.30122l70.452941 0C117.23487 596.319265 159.64845 660.490311 206.492516 705.795248l-4.139002 6.239572c-62.591308 94.042244-77.089068 120.355573-67.770626 140.116929 5.783203 12.271937 20.239743 20.155098 44.16114 24.086771 49.423512 8.153851 164.182784-0.103237 253.980955-86.510748 52.086134 11.148322 137.163068 19.177899 184.984212 19.177899 35.193873 0 69.622156-2.620789 102.342266-7.80023 11.607138-1.830002 19.553048-12.729896 17.700295-24.357339-1.809697-11.627932-12.688064-19.616287-24.358562-17.722924-30.513735 4.825819-62.714237 7.279399-95.683999 7.279399-48.175377 0-140.157661-9.026347-186.52273-20.654401-7.322944-1.85153-15.227022 0.395455-20.531227 5.906255-84.493966 87.781878-199.502889 90.06935-233.034703 81.228682 9.880495-21.528609 40.666021-67.811235 60.198764-97.140196l14.269026-21.508427c5.866257-8.903906 4.243462-20.780267-3.805685-27.790932-49.777868-43.349436-97.557791-115.113383-121.728717-182.799365-3.016733-8.487535-11.045086-14.144751-20.052351-14.144751L42.600482 489.401443 42.600482 342.920055l76.008143-35.174913c5.157913-2.392543 9.130807-6.740587 11.065391-12.064608 31.160676-85.7421 97.411987-162.331866 186.585969-215.645463 6.427697-3.848741 10.35937-10.794823 10.35937-18.283141l0-145.961292c1.352227-0.375028 3.639699-1.060621 4.825207-1.22783l154.510353 0.041833 0 89.111966c0 5.658316 2.247474 11.086185 6.240673 15.079506 3.993933 3.994422 9.423025 6.219757 15.059935 6.219757l0.020916 0c0 0 82.206371-0.102625 110.329398 0 26.063678 0.167331 88.467471 0.021528 88.486553 0 11.731291-0.020305 21.23847-9.547667 21.23847-21.299263l0-89.111966 152.556076 0c0.310566 0.062138 1.143063 0.311789 2.889522 1.164714 0.187514 1.060743 0.438388 2.184725 0.770482 3.349438l0 84.597814c0 6.426474 2.913374 12.522078 7.904078 16.55711 1.643589 1.330822 163.808369 134.812724 168.781091 315.386143 0.269956 9.464124 0.123052 20.759473 0 32.116959-0.126599 11.523472-0.249651 23.089878-0.021528 33.012083-6.489713 80.873959-34.508279 154.488825-81.041658 212.919602-7.322455 9.194167-5.804242 22.590698 3.390048 29.933335 9.258629 7.342637 22.613327 5.803019 29.933213-3.391149 47.613326-59.80282 77.795089-133.522757 87.948475-214.396105 55.726445 11.771901 90.879708 43.84825 92.354987 65.001832 0.916163 13.106269-17.202216 19.615675-28.057953 22.32013-11.421948 2.850013-18.370354 14.414707-15.499914 25.834943 2.851237 11.420725 14.396237 18.409741 25.815616 15.496978 59.179854-14.789857 61.073094-54.728451 60.240475-66.626339-3.349316-47.738824-60.093571-91.648478-132.607695-104.982259 0.021528-4.785821 0.083666-9.714387 0.14458-14.623749 0.148127-11.939232 0.271179-23.837732 0-33.780853-4.928566-178.494989-141.570192-309.76966-176.684068-340.616712l0-78.483129c0-2.684028-0.49808-5.325121-1.475157-7.800107-0.37515-5.55459-1.665362-17.350343-14.104875-25.004769C901.581653-122.921105 891.681588-127.996575 879.886936-127.996575L879.886936-127.996575zM362.729513 569.50541c0-24.50302-19.926853-44.450789-44.431096-44.450789-24.544853 0-44.431096 19.947769-44.431096 44.450789 0 24.546076 19.886243 44.515373 44.431096 44.515373C342.80266 614.020783 362.729513 594.051486 362.729513 569.50541zM862.58075 533.895166c-99.825447 0-181.053518 81.207276-181.053518 181.052417C681.527232 814.771929 762.755303 896 862.58075 896c99.823123 0 181.051194-81.228071 181.051194-181.052417C1043.631944 615.102443 962.403873 533.895166 862.58075 533.895166L862.58075 533.895166zM862.58075 853.399518c-76.342438 0-138.454748-62.11231-138.454748-138.451935 0-76.340726 62.11231-138.453035 138.454748-138.453035 76.340237 0 138.452546 62.11231 138.452546 138.453035C1001.033296 791.287208 938.920987 853.399518 862.58075 853.399518L862.58075 853.399518zM862.537816 613.00065c-37.83619 0-64.275629 23.359957-64.275629 56.7878 0 10.587616 8.592117 19.158205 19.177899 19.158205 10.589451 0 19.181568-8.570589 19.181568-19.158205 0-16.038725 16.242997-18.451084 25.916162-18.451084 9.713775 0 26.003497 2.412359 26.003497 18.451084 0 9.83805-0.875676 11.357364-27.168211 24.295813l-14.663747 7.279888c-26.002274 12.855395-48.447168 23.962618-48.447168 58.679939 0 33.614133 26.439439 57.078672 64.275629 57.078672 37.525624 0 63.734371-23.464539 63.734371-57.078672 0-10.588228-8.590894-19.177899-19.177899-19.177899-10.588105 0-19.180223 8.589671-19.180223 19.177899 0 15.496366-13.79064 18.741345-25.376249 18.741345-7.799006 0-25.916162-1.830002-25.916162-18.741345 0-9.818357 0.872006-11.335959 27.080753-24.316118l14.602955-7.239401c26.064289-12.833867 48.591626-23.921275 48.591626-58.700122C926.896988 636.360606 900.417062 613.00065 862.537816 613.00065L862.537816 613.00065zM861.705196 780.034304c-10.585781 0-19.177899 8.590283-19.177899 19.177899L842.527298 820.263037c0 10.587616 8.592117 19.157594 19.177899 19.157594 10.589328 0 19.177776-8.569978 19.177776-19.157594l0-21.050834C880.883095 788.624586 872.294525 780.034304 861.705196 780.034304L861.705196 780.034304zM861.705196 590.411787c-10.585781 0-19.177899 8.590405-19.177899 19.177899l0 21.050345c0 10.587616 8.592117 19.158205 19.177899 19.158205 10.589328 0 19.177776-8.570589 19.177776-19.158205l0-21.050345C880.883095 599.002191 872.294525 590.411787 861.705196 590.411787L861.705196 590.411787z"  horiz-adv-x="1236" />

    
    <glyph glyph-name="yanjing" unicode="&#59272;" d="M512.242524 61.716876c-79.331813 0-155.318438 16.632819-225.847771 49.437969-56.286957 26.179242-109.167329 62.635549-157.173692 108.35687C47.645137 297.203168 8.711406 374.087233 7.094582 377.322927l-4.004197 8.008394 4.004197 8.008394c1.617847 3.234671 40.550555 80.119759 122.127502 157.812235 48.006364 45.720298 100.886735 82.176604 157.173692 108.355847 70.529333 32.804127 146.514935 49.436946 225.847771 49.436946 72.28942 0 143.905504-16.656355 212.863039-49.507554 54.807257-26.110681 108.024296-62.445214 158.173462-107.99769 85.107353-77.305667 131.504056-153.661705 133.437082-156.874887l5.557576-9.234315-5.557576-9.233292c-1.934049-3.213181-48.329728-79.56922-133.437082-156.87591-50.149167-45.552475-103.367229-81.887009-158.173462-107.99769C656.148028 78.373231 584.53092 61.716876 512.242524 61.716876zM43.479257 385.330298c11.978822-21.231557 48.759517-81.379449 111.352087-140.748604 102.870926-97.575316 223.121683-147.049101 357.411179-147.049101 151.533228 0 271.900643 80.216973 346.193697 147.509588 64.704674 58.609863 106.826004 117.960599 121.652687 140.28914-14.820544 22.320355-56.942897 81.674161-121.652687 140.288117-74.293053 67.293639-194.660468 147.509588-346.193697 147.509588-134.289496 0-254.540254-49.474808-357.411179-147.049101C92.243891 466.714863 55.464219 406.573111 43.479257 385.330298zM502.020718 162.515606c-61.943794 0-120.179127 24.121374-163.980725 67.921949-43.800575 43.801599-67.921949 102.036931-67.921949 163.980725s24.122397 120.179127 67.921949 163.979702c43.800575 43.800575 102.036931 67.921949 163.980725 67.921949s120.179127-24.122397 163.978678-67.922972c43.799552-43.799552 67.920926-102.035908 67.920926-163.979702s-24.121374-120.179127-67.920926-163.979702C622.199845 186.638003 563.964512 162.515606 502.020718 162.515606zM502.020718 590.505237c-108.122533 0-196.086957-87.963401-196.086957-196.086957 0-108.122533 87.964424-196.086957 196.086957-196.086957 108.12151 0 196.083887 87.964424 196.083887 196.086957C698.104605 502.540813 610.142228 590.505237 502.020718 590.505237zM397.645532 394.41828l-35.815717 0c0 77.301574 62.889329 140.190903 140.190903 140.190903l0-35.815717C444.467931 498.793466 397.645532 451.971068 397.645532 394.41828z"  horiz-adv-x="1038" />

    
    <glyph glyph-name="jisuanqi1" unicode="&#59271;" d="M135.658168 803.147242l-1.385557-0.141216c-23.360034-2.350534-40.972157-21.476127-40.972157-44.496423l0-329.868893 396.047128 0L489.347582 803.147242 135.658168 803.147242zM396.077316 599.902258l-81.772398 0 0-87.176478c0-12.511965-10.143011-22.652929-22.648836-22.652929-12.517081 0-22.662139 10.140964-22.662139 22.652929l0 87.176478-82.420151 0c-12.509918 0-22.654976 10.136871-22.654976 22.653953 0 12.514012 10.140964 22.652929 22.654976 22.652929l82.420151 0 0 77.019141c0 12.511965 10.140964 22.652929 22.662139 22.652929 12.505825 0 22.648836-10.140964 22.648836-22.652929l0-77.019141 81.772398 0c12.505825 0 22.650883-10.137895 22.650883-22.652929C418.728198 610.039129 408.587234 599.902258 396.077316 599.902258zM889.726366 803.007049l-1.38351 0.141216L534.653441 803.148265l0-374.507556 396.045081 0L930.698522 758.509602C930.698522 781.529899 913.086399 800.656515 889.726366 803.007049zM837.429279 593.240535 627.923708 593.240535c-12.511965 0-22.652929 10.136871-22.652929 22.653953 0 12.514012 10.140964 22.652929 22.652929 22.652929l209.505571 0c12.511965 0 22.648836-10.137895 22.648836-22.652929C860.078115 603.378429 849.941244 593.240535 837.429279 593.240535zM93.300454 383.334851l0-374.738823c0-24.119327 19.624966-43.742247 43.742247-43.742247l352.302835 0 0 418.48107L93.300454 383.334851zM383.327944 88.802768c-8.851599-8.849552-23.196305-8.846482-32.04074 0l-61.643965 61.641919-58.280358-58.284451c-8.844435-8.842389-23.192212-8.849552-32.036647 0-8.851599 8.846482-8.847505 23.192212 0 32.042787l58.280358 58.280358-54.461379 54.459333c-8.846482 8.846482-8.846482 23.192212 0 32.038694s23.192212 8.846482 32.04074 0l54.457286-54.459333 57.820893 57.820893c8.847505 8.846482 23.192212 8.846482 32.04074 0 8.844435-8.849552 8.844435-23.196305 0-32.038694l-57.820893-57.820893 61.635779-61.641919C392.172379 111.990886 392.172379 97.64925 383.327944 88.802768zM534.653441 383.334851l0-418.48107 352.302835 0c24.12342 0 43.742247 19.62292 43.742247 43.742247L930.698522 383.334851 534.653441 383.334851zM837.429279 96.324068l-209.501478 0c-12.511965 0-22.657023 10.140964-22.657023 22.652929s10.145058 22.657023 22.657023 22.657023l209.501478 0c12.511965 0 22.652929-10.145058 22.652929-22.657023S849.941244 96.324068 837.429279 96.324068zM837.429279 219.512738l-209.501478 0c-12.511965 0-22.657023 10.136871-22.657023 22.648836 0 12.519128 10.145058 22.657023 22.657023 22.657023l209.501478 0c12.511965 0 22.652929-10.140964 22.652929-22.657023C860.082208 229.64961 849.941244 219.512738 837.429279 219.512738z"  horiz-adv-x="1024" />

    
    <glyph glyph-name="m-jinrong" unicode="&#59102;" d="M1017.515 750.217c4.181 7.526 6.485 15.326 6.485 23.347 0 61.474-129.57 111.292-289.382 111.292-159.829 0-289.399-49.835-289.399-111.292 0-8.021 2.304-15.821 6.485-23.347-3.806-1.775-6.485-5.581-6.485-10.052v-184.559c-45.005 11.093-98.389 17.613-155.819 17.613-159.829 0-289.399-49.835-289.399-111.309 0-8.021 2.304-15.821 6.485-23.347-3.806-1.758-6.485-5.564-6.485-10.052v-445.218c0-3.823 2.048-7.031 4.983-9.028 24.695-51.831 142.524-91.136 284.416-91.136 141.892 0 259.703 39.305 284.416 91.136 2.935 1.997 4.983 5.205 4.983 9.028v73.301c44.988-11.11 98.355-17.647 155.836-17.647 141.892 0 259.721 39.322 284.399 91.153 2.935 1.997 4.966 5.205 4.966 9.028v601.037c0 4.489-2.662 8.294-6.485 10.052zM289.399 528.691c135.236 0 244.855-29.901 244.855-66.765 0-36.881-109.619-66.799-244.855-66.799s-244.873 29.901-244.873 66.782c0 36.881 109.619 66.782 244.873 66.782zM44.527 402.79c51.217-31.3 141.602-52.173 244.873-52.173 103.253 0 193.638 20.855 244.855 52.156v-96.7c0-36.864-109.619-66.782-244.855-66.782s-244.873 29.918-244.873 66.799v96.7zM44.527 246.955c51.217-31.3 141.602-52.173 244.873-52.173 103.253 0 193.638 20.873 244.855 52.173v-96.7c0-36.864-109.619-66.782-244.855-66.782s-244.873 29.918-244.873 66.782v96.7zM289.399-72.346c-135.236 0-244.873 29.918-244.873 66.782v96.683c51.217-31.3 141.602-52.173 244.873-52.173 103.253 0 193.638 20.873 244.855 52.173v-96.683c-0-36.864-109.619-66.782-244.855-66.782zM979.473 150.255c0-36.864-109.619-66.782-244.855-66.782-59.204 0-113.493 5.734-155.836 15.275v113.869c45.022-11.145 98.253-17.818 155.836-17.818 103.253 0 193.638 20.873 244.855 52.173v-96.717zM979.473 306.091c0-36.864-109.619-66.782-244.855-66.782-59.204 0-113.493 5.734-155.836 15.275v113.869c45.022-11.162 98.253-17.818 155.836-17.818 103.253 0 193.638 20.855 244.855 52.156v-96.7zM979.473 461.909c0-36.881-109.619-66.799-244.855-66.799-59.204 0-113.493 5.734-155.836 15.275v18.125c0 4.489-2.662 8.294-6.485 10.052 4.181 7.526 6.485 15.326 6.485 23.347 0 31.539-34.253 59.955-89.054 80.196v16.486c51.217-31.3 141.602-52.173 244.89-52.173 103.253 0 193.638 20.873 244.855 52.173v-96.683zM979.473 617.728c0-36.881-109.619-66.782-244.855-66.782-135.253 0-244.89 29.901-244.89 66.782v96.7c51.217-31.3 141.602-52.173 244.89-52.173 103.253 0 193.638 20.855 244.855 52.156v-96.683zM734.618 706.782c-135.253 0-244.89 29.901-244.89 66.782 0 36.864 109.636 66.782 244.89 66.782 135.236 0 244.855-29.918 244.855-66.782 0-36.881-109.619-66.782-244.855-66.782z"  horiz-adv-x="1024" />

    
    <glyph glyph-name="xinfeng" unicode="&#58896;" d="M867.894128 767.536186 156.732136 767.536186c-51.064003 0-92.608188-41.562605-92.608188-92.651167l0-547.776831c0-51.024094 41.544185-92.536556 92.608188-92.536556l711.161992 0c51.03228 0 92.550883 41.511439 92.550883 92.536556L960.44501 674.88502C960.44501 725.972559 918.926408 767.536186 867.894128 767.536186zM855.717807 709.520865 512.281921 311.677834 168.771333 709.520865 855.717807 709.520865zM867.894128 92.586954 156.732136 92.586954c-19.074428 0-34.592866 15.486716-34.592866 34.521235L122.13927 674.759153l366.2945-424.231027c6.011924-6.962575 14.70491-10.955516 23.851221-10.955516s17.84032 3.992941 23.853267 10.957563l366.293477 424.323125 0-547.746132C902.430712 108.072647 886.937856 92.586954 867.894128 92.586954z"  horiz-adv-x="1024" />

    
    <glyph glyph-name="zhuanrang" unicode="&#59184;" d="M839.369979 78.077495l85.249593 0 0-35.969213L780.747837 42.108283l0 35.969213L780.747837 221.953324l35.96512 0 0-115.240651c66.499553 73.326029 107.36324 170.323177 107.36324 277.107225 0 228.146117-184.955432 413.094386-413.101549 413.094386-43.921325 0-86.177731-6.989181-125.887129-19.685341L385.087519 815.222255c39.98262 11.653411 82.145905 18.207687 125.887129 18.207687 248.314459 0 449.614138-201.299679 449.614138-449.610044C960.588785 265.421324 914.224828 158.321074 839.369979 78.077495zM406.38866 553.06451 510.87027 435.938929l104.442724 117.085672 29.480428-33.648354L528.966417 401.800411 636.868939 401.800411l0.503467-35.969213-108.405989 0.004093 0-35.969213L636.868939 329.866079l0-35.972283L528.966417 293.893796l0-107.906615-35.969213 0L492.997204 293.894819 385.087519 293.894819l0 35.972283 107.909685 0 0 35.969213-108.405989-0.004093 0.496304 35.969213 107.909685 0-115.858728 117.876688L406.38866 553.06451zM528.966417 185.988204M492.997204 185.988204M241.215784 696.227094c-87.645153-75.747171-143.335523-187.472765-143.335523-312.407196 0-228.15021 184.944176-413.098479 413.094386-413.098479 57.459666 0 112.150266 11.780301 161.863505 32.976042l0-38.968523c-50.281173-19.437701-104.72311-30.519084-161.863505-30.519084-248.307296 0-449.610044 201.295586-449.610044 449.610044 0 137.264247 62.265112 259.274068 159.269423 341.696266l-87.328951 0 0 35.969213 143.874805 0 0-35.969213 0-143.874805-35.96512 0L241.21476 696.227094z"  horiz-adv-x="1024" />

    
    <glyph glyph-name="cunqianguan3" unicode="&#58907;" d="M587.913-108.117h-151.826c-5.478 0.438-343.945 31.824-343.945 327.008 0 242.621 217.59 373.963 295.307 413.194l-111.197 134.203c-4.922 7.597-5.23 17.313-0.935 25.219 4.362 8.035 12.704 13.018 21.799 13.018h112.965l82.057 62.959c4.733 5.107 11.394 7.973 18.307 7.973h3.051c6.914 0 13.641-2.866 18.313-7.973l81.993-62.959h113.031c9.089 0 17.437-4.983 21.733-12.951 4.423-7.911 3.924-17.627-0.937-25.286l-111.074-134.265c77.782-39.236 295.307-170.574 295.307-413.194 0-295.183-338.524-326.57-341.95-326.884-0.622 0-1.373-0.062-1.995-0.062v0zM342.635 754.89l101.861-119.815c3.982-6.1 5.042-13.76 2.861-20.734-2.175-7.041-7.345-12.704-14.197-15.57-2.864-1.244-291.387-124.363-291.387-379.94 0-249.476 284.289-276.377 296.372-277.499l148.647 0.062c21.737 2.058 295.559 32.692 295.559 277.437 0 255.577-288.709 378.697-291.573 379.94-6.785 2.866-11.954 8.529-14.135 15.57-2.181 7.036-1.059 14.633 2.864 20.797l101.795 119.82h-78.405c-6.847 0-13.574 2.928-18.245 8.031l-72.651 52.748-72.717-52.81c-4.604-5.040-11.269-8.034-18.245-8.034h-78.405zM588.145 596.897h-176.612c-13.703 0-24.787 11.089-24.787 24.787 0 13.703 11.084 24.787 24.787 24.787h176.612c13.698 0 24.849-11.146 24.849-24.787 0-13.636-11.151-24.787-24.849-24.787v0zM494.546 13.257c-7.849 0-13.579 2.305-17.129 7.158-3.051 3.987-4.547 10.401-4.547 19.927v95.657h-112.59c-13.081 0-20.929 7.536-20.929 20.302 0 13.081 7.35 20.986 19.617 20.986h113.901v54.93h-136.916c-13.081 0-20.929 7.597-20.929 20.241 0 13.26 7.35 21.047 19.617 21.047h116.804l-119.15 101.452c-4.048 3.113-6.538 9.403-5.415 15.946 1.059 5.977 3.796 10.71 8.282 14.197 3.986 3.051 8.594 4.609 13.702 4.609 5.977-0.314 12.391-2.557 17.315-11.707l129.675-123.066 127.124 121.26c3.549 5.977 9.155 13.888 17.185 13.888 4.609 0 9.279-1.558 14.139-4.547 7.406-4.733 8.965-10.461 8.965-14.449 0-4.609-1.806-9.901-5.73-16.69l-116.661-100.893h114.252c13.142 0 20.986-7.787 20.986-21.047 0-12.644-7.844-20.241-20.986-20.241h-138.288v-54.93h113.9c13.142 0 20.986-7.906 20.986-20.986 0-12.766-7.844-20.302-20.986-20.302h-113.9v-95.657c0-9.526-1.43-15.94-4.547-19.927-3.488-4.854-9.465-7.158-17.746-7.158v0zM494.546 13.257z"  horiz-adv-x="1024" />

    
    <glyph glyph-name="cunqianguan" unicode="&#58914;" d="M889.534985 321.10213c-5.463669 35.401946-15.290245 67.120902-29.196327 94.421-13.702959 26.972911-30.103695 51.151956-48.786231 71.757479-17.891934 19.527872-35.510197 36.850572-52.860873 51.74065-19.057159 15.597971-35.995505 30.379798-50.221478 44.02559-14.281923 13.81121-26.54477 26.221231-36.840841 37.761589-11.473461 11.930794-21.133402 22.934759-28.563846 32.702952l-4.884705 6.532806c1.853658 2.270852 4.039369 4.485755 5.782342 6.794313 2.865629 3.777862 6.105881 7.554507 9.507902 11.337234 3.766915 4.095319 7.226103 7.762496 10.296072 10.845844 6.214132 6.310221 12.523137 12.416102 18.795653 18.07438 3.183086 2.906983 9.658725 7.611674 22.292547 13.436587 8.233209 3.724344 15.293894 8.746492 21.023934 14.728309 6.532806 6.903781 10.832465 14.291653 12.843027 22.112533 2.59804 10.2012 0.788169 20.829324-5.09391 30.003958-5.520835 8.746492-14.710064 14.947245-28.246388 18.875929-8.813389 2.105434-16.980917 2.808462-23.997814 1.9388-5.573137-0.541258-11.250876-1.734459-16.990647-3.240252L650.482453 800.799344c-1.273478-0.370975-4.139106-1.021701-9.393569-1.021701-4.085588 0-6.532806 0.536393-7.060685 0.703028-2.807246 1.136034-5.259328 2.38032-7.430443 3.835028l-11.250876 7.502206c-6.589973 4.370205-14.433962 7.445039-23.04301 9.325456-17.618264 5.121885-32.81242 5.88208-45.541113 1.9388-10.299721-3.130784-20.496055-7.986297-31.058499-15.15645-2.394916-1.729594-4.451698-3.125919-6.101016-4.261953-0.317457 0.223801-0.636131 0.318673-0.954804 0.542475-2.545739 1.077651-4.883488 2.265987-7.11177 3.457972-1.330644 0.817361-2.656423 1.729594-5.953842 4.580627-8.908261 6.418473-20.592144 10.40554-35.562499 12.135134-15.185642 1.733243-29.091725-0.318673-42.209638-6.143586-13.117913-6.200753-22.140508-11.332369-28.303555-16.078414 0 0-2.33775-1.567825-7.539911-2.532359l-4.623198-0.43179c-1.534984 0-3.34972 0.265156-5.092694 0.598425-6.367388 1.505793-12.895328 3.016451-19.594769 4.427372-7.696815 1.672428-15.127259 2.808462-22.145373 3.344855-10.780164 0.859932-20.382938-0.964535-30.208298-6.042633-24.259321-13.812427-25.475632-35.401946-19.109461-49.698464 5.630303-12.566924 15.389982-22.444585 28.560197-29.186597 7.226103-3.833812 14.657763-8.414439 22.187944-13.493753 6.627678-4.427372 12.633822-9.49209 17.46136-14.775745 3.667177-4.209652 7.862234-8.846229 12.689772-13.81121 4.13789-4.31912 8.06779-8.63824 12.053641-13.55092 2.023941-2.323154 4.029638-4.803212 6.048714-7.170153l-4.660903-6.08642c-8.391329-10.742458-18.216689-22.335117-29.89449-35.176928-8.813389-10.519873-20.178598-22.501752-33.657756-35.501683-13.907299-13.322254-29.66704-27.618772-46.609034-42.342216-21.546948-18.340752-41.568642-39.278329-59.670997-62.31769-18.476979-23.471152-33.976429-49.58778-46.182109-77.525225-12.315148-27.942311-20.909601-58.373194-25.589965-90.315951-4.770371-32.312516-3.928684-66.464094 2.661288-101.533987 5.838292-31.718956 18.045189-63.993766 36.198629-95.712723 18.211823-31.828424 43.108492-61.067322 74.000356-86.866493 30.788478-25.684838 68.584124-46.718502 112.385913-62.57798 43.787193-15.902049 94.421-23.999031 150.536721-23.999031 54.416534 0 103.889981 6.965813 147.055639 20.60674 43.368782 13.758909 81.425935 32.593484 113.174082 56.05004 32.175073 23.688871 58.344002 52.064189 77.871874 84.224666 19.318666 31.937892 32.493746 66.355842 39.121424 102.725971C894.158183 246.275898 895.003519 285.923985 889.534985 321.10213L889.534985 321.10213zM357.879401 748.499191c-3.014018 2.213686-6.028037 4.360475-8.987321 6.3832 3.496894-0.892772 6.877022-1.669995 10.272962-2.615068 9.523714-2.213686 19.138652-2.567632 27.315911-1.083733 13.65309 2.330452 24.242293 6.857561 32.258998 13.715122 1.612828 1.246719 6.555916 4.944304 19.038915 11.379805 4.620765 2.144356 10.111193 2.799948 15.816907 2.144356 8.05806-1.013187 10.972341-2.683182 10.855575-2.265987 3.877599-3.698802 7.95589-6.922025 12.26163-9.472629 3.436078-2.144356 7.199344-4.236411 9.889824-5.419881 4.461428-2.7367 9.348566-5.252031 16.134364-7.867099l6.836884-0.945074c5.208243 0 10.488249 1.431598 16.07963 4.289929 5.102424 2.7367 11.558603 7.159206 19.092433 13.11913 5.907622 4.288712 11.719156 7.327057 20.379289 9.472629 2.632097 0 7.257727-0.476794 16.140446-3.275525 5.262977-1.2528 7.097174-2.447218 7.519234-2.806029l11.513599-8.289159c5.164456-3.698802 10.816653-6.922025 16.782658-9.420328 14.195565-5.958707 35.378836-6.080338 50.11201-1.129953-6.23481-4.174379-11.613337-8.528772-16.179368-13.054665-7.037575-6.922025-14.150561-14.301384-21.128537-22.186727-3.440944-3.814351-7.373277-8.224694-11.618202-13.28698-4.461428-5.304332-8.604183-10.671912-12.582736-16.33019-1.285641-1.976505-2.692912-3.883681-4.199922-5.772612L417.369168 683.78172c-2.31464 2.986043-4.564815 5.843158-6.675114 8.45701-4.360475 5.726392-9.141793 11.564684-14.245433 17.34581-4.244925 4.759425-7.902372 9.181931-11.563468 13.773505C376.852635 732.812429 367.770441 741.224435 357.879401 748.499191L357.879401 748.499191zM833.829161 212.545164c-5.440559-29.75583-16.386141-58.398736-32.445094-84.908233-15.86556-26.299075-37.54022-49.626702-64.174997-69.309045-27.004535-19.912226-59.781682-36.095243-97.419207-48.013874-37.637525-11.97823-81.399176-18.046405-130.027286-18.046405-49.618188 0-93.906501 6.968245-131.59876 20.64931-37.793213 13.682282-70.147083 31.676385-96.208977 53.292663-25.970671 21.719664-46.807293 46.154134-61.98807 72.722014-15.279298 26.724784-25.442792 53.503085-30.259383 79.63066-5.498942 29.381207-6.279813 57.926808-2.400998 84.694162 4.03572 27.30618 11.355479 53.23428 21.774398 77.145736 10.516224 23.950378 23.764283 46.149269 39.414555 66.119878 15.864343 20.226034 33.446118 38.599627 52.40354 54.72791 17.484469 15.274433 33.601805 29.923681 47.841157 43.604746 14.288004 13.683498 26.594638 26.671266 36.329991 38.233517 8.529988 9.428842 29.878678 39.424286 36.998962 48.141586l177.810061 0c6.909862-8.363354 25.00492-38.18973 33.80128-47.344903 10.315533-11.450351 23.13545-24.590158 38.160539-39.030201 15.084688-14.536132 32.71998-30.078153 52.038646-45.72356 15.175911-13.100885 31.098638-28.746292 47.314495-46.578627 15.449581-16.983349 29.209707-37.206951 40.832774-60.161171 11.517248-22.515131 19.685992-49.084227 24.233779-78.953174C840.784027 283.671377 839.99829 249.651161 833.829161 212.545164L833.829161 212.545164zM618.500774 452.463709l-106.061096-79.212249-106.170564 79.212249c-11.250876 10.851926-29.632983 10.851926-40.93616 0-11.308043-10.794759-10.614745-28.217197 0.688432-39.011956l118.062436-85.830196 0-11.208305-111.178116 0c-15.987191 0-29.632983-24.55002-29.632983-39.758771 0-15.265918 12.956144-15.916645 28.982257-15.916645l111.815463 0 0-43.416218-86.853114 0c-15.987191 0-29.628118-25.238452-29.628118-40.518966 0-15.264702 12.952495-15.112663 28.977391-15.112663l87.489244 0 0-66.939671c0-15.323085 12.315148-21.633306 28.341261-21.633306 15.982325 0 28.245172 12.306634 28.245172 27.623637l0 60.94934 86.895685 0c15.982325 0 29.628118-0.166635 29.628118 15.112663 0 15.265918-13.008445 40.518966-28.93482 40.518966l-87.588982 0 0 43.416218 111.221903 0c15.982325 0 29.628118 0.650726 29.628118 15.916645 0 15.208752-13.008445 39.758771-28.93482 39.758771l-111.9152 0 0 11.041671 118.17312 85.996831c11.250876 10.794759 11.939308 28.217197 0.636131 39.011956C648.186058 463.315635 629.861118 463.315635 618.500774 452.463709L618.500774 452.463709zM616.301684 501.116146"  horiz-adv-x="1024" />

    
    <glyph glyph-name="shouji" unicode="&#58941;" d="M394.395 100.109c-26.407 0-47.89-21.482-47.89-47.891 0-26.407 21.484-47.891 47.89-47.891 26.408 0 47.893 21.483 47.893 47.891C442.287 78.627 420.803 100.109 394.395 100.109zM631.334 853.931 157.458 853.931c-39.865 0-72.298-32.433-72.298-72.298l0-795.266c0-39.866 32.433-72.298 72.298-72.298l473.875 0c39.865 0 72.297 32.432 72.297 72.298L703.63 781.633C703.631 821.498 671.199 853.931 631.334 853.931zM157.458 805.732l473.875 0c13.289 0 24.1-10.812 24.1-24.1l0-595.808L133.359 185.824 133.359 781.633C133.359 794.921 144.17 805.732 157.458 805.732zM631.334-37.731 157.458-37.731c-13.288 0-24.1 10.81-24.1 24.099L133.358 133.5l522.075 0 0-147.133C655.434-26.922 644.623-37.731 631.334-37.731z"  horiz-adv-x="1024" />

    
    <glyph glyph-name="xinfeng1" unicode="&#59019;" d="M657.824 371.90016l361.29664 355.08352c-8.23552 17.20576-25.8048 29.09056-46.15424 29.09056L52.40832 756.07424c-20.34944 0-37.91872-11.8848-46.15424-29.09056l361.29664-355.08352C447.7056 321.36704 577.66784 321.36704 657.824 371.90016zM1.26592 656.43904l0-569.84192 300.31104 285.64992L1.26592 656.43904zM723.79648 372.24704l300.31104-285.64992L1024.10752 656.43904 723.79648 372.24704zM676.75392 327.72864c-90.6112-57.504-237.52192-57.504-328.13312 0l-13.5296 12.80256L7.04768 16.47232c8.53248-16.35584 25.63584-27.52896 45.36064-27.52896L972.9664-11.05664c19.7248 0 36.82944 11.17312 45.36064 27.52896L690.28352 340.53248 676.75392 327.72864z"  horiz-adv-x="1025" />

    
    <glyph glyph-name="weibo1" unicode="&#58947;" d="M411.270737 288.350316c-17.973895 7.504842-41.189053-0.229053-52.264421-17.542737-11.223579-17.394526-5.955368-38.103579 11.870316-46.201263 18.108632-8.232421 42.132211-0.417684 53.342316 17.421474C435.253895 260.055579 429.446737 280.629895 411.270737 288.350316zM455.545263 306.647579c-6.885053 2.721684-15.508211-0.579368-19.550316-7.329684-3.920842-6.790737-1.751579-14.524632 5.146947-17.367579 7.019789-2.883368 16.006737 0.458105 20.048842 7.370105C465.071158 296.259368 462.551579 304.087579 455.545263 306.647579zM427.52 426.684632c-115.968-11.439158-203.924211-82.216421-196.378947-158.073263 7.531789-75.910737 107.654737-128.161684 223.649684-116.749474 115.994947 11.439158 203.924211 82.216421 196.392421 158.140632C643.664842 385.859368 543.541895 438.110316 427.52 426.684632zM529.300211 247.700211c-23.673263-53.355789-91.769263-81.798737-149.530947-63.232-55.754105 17.933474-79.373474 72.811789-54.945684 122.246737 23.956211 48.464842 86.352842 75.870316 141.541053 61.561263C523.506526 353.562947 552.663579 299.856842 529.300211 247.700211zM512 896C229.241263 896 0 666.772211 0 384c0-282.758737 229.241263-512 512-512 282.772211 0 512 229.241263 512 512C1024 666.772211 794.772211 896 512 896zM455.531789 101.025684c-145.354105 0-293.941895 70.197895-293.941895 185.667368 0 60.362105 38.386526 130.182737 104.474947 196.069053 88.252632 87.929263 191.164632 127.986526 229.874526 89.397895 17.084632-17.003789 18.741895-46.457263 7.760842-81.623579-5.726316-17.690947 16.666947-7.895579 16.666947-7.936 71.343158 29.763368 133.564632 31.514947 156.321684-0.862316 12.139789-17.246316 10.954105-41.472-0.215579-69.510737-5.173895-12.921263 1.589895-14.928842 11.466105-17.879579 40.178526-12.422737 84.924632-42.455579 84.924632-95.380211C772.837053 211.361684 646.090105 101.025684 455.531789 101.025684zM718.672842 468.197053c4.715789 14.457263 1.765053 30.962526-9.202526 43.061895-10.954105 12.072421-27.136 16.666947-42.037895 13.527579l0 0.026947c-12.463158-2.694737-24.724211 5.268211-27.392 17.664-2.667789 12.463158 5.281684 24.697263 17.744842 27.338105 30.531368 6.467368 63.595789-2.937263 85.989053-27.715368 22.447158-24.764632 28.456421-58.489263 18.849684-88.064-3.907368-12.099368-16.936421-18.728421-29.062737-14.848-12.139789 3.920842-18.782316 16.922947-14.874947 28.995368L718.672842 468.183579zM853.261474 424.865684c-0.013474-0.013474-0.013474-0.080842-0.013474-0.107789-4.567579-14.026105-19.712-21.706105-33.778526-17.165474-14.133895 4.554105-21.854316 19.590737-17.300211 33.670737l0 0.013474c13.999158 43.169684 5.12 92.429474-27.567158 128.565895-32.714105 36.122947-80.949895 49.92-125.507368 40.488421-14.484211-3.085474-28.752842 6.130526-31.838316 20.574316-3.098947 14.403368 6.144 28.631579 20.641684 31.717053l0.026947 0c62.625684 13.271579 130.519579-6.117053 176.545684-56.966737C860.483368 554.886737 872.892632 485.618526 853.261474 424.865684z"  horiz-adv-x="1024" />

    
    <glyph glyph-name="guanbi" unicode="&#58923;" d="M582.4 384l396.8 396.8c19.2 19.2 19.2 51.2 0 70.4s-51.2 19.2-70.4 0L512 454.4 115.2 851.2C96 870.4 64 870.4 44.8 851.2 32 832 32 800 51.2 780.8L441.6 384l-396.8-396.8c-19.2-19.2-19.2-51.2 0-70.4 6.4-6.4 19.2-12.8 32-12.8s25.6 6.4 32 12.8L512 320l396.8-396.8c6.4-6.4 19.2-12.8 32-12.8s25.6 6.4 32 12.8c19.2 19.2 19.2 51.2 0 70.4L582.4 384 582.4 384z"  horiz-adv-x="1024" />

    
    <glyph glyph-name="hezuo-copy" unicode="&#58888;" d="M28.416 326.784l56-28.8c0 0 25.472-14.592 38.912 12.672l138.624 289.92c0 0 13.12 24.768-8.32 36.416l-61.12 29.824c0 0-18.944 10.56-31.296-11.712-0.384-8.96-142.272-295.424-142.272-295.424s-9.024-23.488 9.472-32.896zM942.528 297.344l57.152 26.304c0 0 27.328 11.072 14.144 38.528l-142.592 287.936c0 0-11.392 25.536-33.792 15.936l-61.12-29.632c0 0-20.032-8.384-10.176-31.808 6.848-5.888 144.704-294.4 144.704-294.4s12.864-21.568 31.68-12.864zM164.032 298.304l18.88 40 66.24-83.648c0 0 43.072 9.856 58.176-17.088 0 0 14.208-16.384 8-47.296 0 0 8.896-6.464 9.6-10.496 0 0 29.632 7.168 47.488-13.888 0 0 16.384-13.056 14.528-38.528 0 0 11.776-5.056 14.208-12.032 0 0 29.12 7.232 43.264-9.792 0 0 17.28-16.128 16-35.008l27.072-19.776c0 0 25.216-2.112 29.248-21.824l24.256-17.92c0 0 38.784-15.36 40.96 23.424l-91.072 69.376c0 0-10.688 27.968 22.72 23.616l135.744-95.616c0 0 22.208-9.472 35.648 11.584 0 0 13.056 18.176-5.504 37.888l-144.384 104.32c0 0-12.736 29.184 20.032 26.944l171.328-121.216c0 0 24.32-9.664 34.56 8.448 0 0 13.888 18.112 0 36.8l-189.12 137.984c0 0-11.392 33.088 24 24.512l195.008-138.88c0 0 29.504-9.28 42.624 14.784 0 0 16.704 25.856-5.696 47.168l-275.84 240.64c0 0-51.264 24.512-81.856-26.752 0 0-5.376-83.52-98.176-98.752 0 0-63.296 4.864-48.576 46.4 0 0 18.56 24.576 16.96 76.352 0 0 2.112 37.12 27.84 68.8l-99.328 0 21.824 45.248h150.016c0 0 61.632 34.944 108.096 31.68 0 0 60.608-3.264 76.864-12.544 0 0 80.256-25.664 116.224-19.648l134.272-278.272-21.312-48.64c0 0 39.296-40.384 10.304-89.344-8.064-16.448-28.8-32.32-62.656-33.856 0 0 5.184-33.024-18.56-51.648 0 0-17.472-23.936-59.776-17.344 0 0 2.432-29.184-25.6-48.576 0 0-33.344-28.672-84.864 6.272 0 0-8.192-32.832-49.344-39.552 0 0-30.016-4.672-47.488 12.224 0 0-31.424-59.2-76.16-25.856 0 0-28.352 23.488-8.448 56.704 0 0-38.144-60.288-83.456-14.976 0 0-25.152 18.88-1.92 58.432 0 0-35.968-40.96-75.584-3.84 0 0-27.008 22.080-5.44 63.168 0 0-36.8-43.584-79.68-2.048 0 0-17.984 16.576-7.616 53.44l41.472 56.704-56 71.744z"  horiz-adv-x="1024" />

    
    <glyph glyph-name="jinronglicai" unicode="&#58948;" d="M230.048443 284.240949 71.295789 442.499345l51.720965 61.95812 104.012935-101.168144L430.314583 603.780589 549.680181 487.47263l224.514403 224.51645-49.004087 57.211003 231.015468-1.093914L549.680181 370.170017 430.314583 486.120842 270.457782 326.251761l0.232291-0.227174L230.048443 284.240949zM549.680181 235.297236 430.314583 367.380484 230.048443 160.179398 62.257949 316.512956l0-265.339204c0-27.189246 22.044062-49.233308 49.236378-49.233308L906.97061 1.940444c27.192316 0 49.235354 22.044062 49.235354 49.233308L956.205964 631.088538 549.680181 235.297236z"  horiz-adv-x="1024" />

    
    <glyph glyph-name="denglu" unicode="&#58979;" d="M968.498523 231.924146l-28.112018 0c0.1129 1.196736 0.338699 2.303153 0.338699 3.52247L940.725204 296.051158c0 77.404013-62.930276 140.356869-140.334289 140.356869-77.358853 0-140.311709-62.952856-140.311709-140.356869l0-60.604542c0-1.241896 0.248379-2.348313 0.361279-3.52247l-16.573671 0c-25.808864 0-46.785623-20.999338-46.785623-46.785623l0-223.157486c0-25.854024 20.999338-46.830783 46.785623-46.830783l324.654289 0c25.786284 0 46.785623 20.999338 46.785623 46.830783l0 223.157486C1015.284146 210.924807 994.262227 231.924146 968.498523 231.924146L968.498523 231.924146zM731.702756 235.446615 731.702756 296.051158c0 37.934289 30.79903 68.755899 68.665579 68.755899 37.889129 0 68.710739-30.82161 68.710739-68.755899l0-60.604542c0-1.241896 0.270959-2.348313 0.383859-3.52247L731.364057 231.924146C731.454377 233.120882 731.702756 234.204719 731.702756 235.446615L731.702756 235.446615zM979.449791-38.018964c0-6.096582-4.922426-10.973848-10.951268-10.973848L643.844234-48.992811c-6.051422 0-10.973848 4.899846-10.973848 10.973848l0 223.157486c0 6.051422 4.945006 10.973848 10.973848 10.973848l324.654289 0c6.051422 0 10.951268-4.945006 10.951268-10.973848L979.449791-38.018964 979.449791-38.018964zM806.148798 85.425535c-14.789857 0-26.824961-11.989945-26.824961-26.824961l0-51.640309 53.627343 0 0 51.640309C832.97376 73.41301 820.961235 85.425535 806.148798 85.425535L806.148798 85.425535zM655.901918 290.699713c-17.02527 6.006262-34.29892 11.199647-51.820948 15.557574-2.551533 1.332216-5.441764 2.122514-8.377155 2.122514l-9.190033 0c-2.867652 0-5.735303-0.699978-8.309416-2.077354-6.186902-3.34183-13.186681-6.164322-20.231621-8.919074-5.441764-2.167674-11.199647-3.883749-17.00269-5.644983-2.641852-0.699978-5.306284-1.535436-7.993297-2.303153-5.035325-1.377376-10.25129-2.461213-15.467255-3.47731-4.606307-0.925777-9.302933-1.670915-14.022139-2.348313-4.041808-0.564498-8.015877-1.196736-12.125424-1.580595-9.280353-0.970937-18.741345-1.580595-28.224917-1.580595-3.54505 0-7.044939 0.451599-10.567409 0.609658-38.837486 1.377376-76.523396 10.13839-104.590254 25.221786-2.506373 1.377376-5.419184 2.077354-8.309416 2.077354l-6.68366 0c-1.354796 0-2.732172-0.13548-4.086968-0.451599-103.958015-24.612128-200.577552-78.194311-279.539581-154.762867-3.36441-3.29667-5.283705-7.948137-5.283705-12.667343l0-62.930276c0-9.754531 7.857817-161.356207 17.612348-161.356207l390.881235 0 105.403131 0 26.328203 0c-20.52516 42.111577-32.063506 89.393958-32.063506 139.408512C552.237442 148.694509 592.203925 232.488644 655.901918 290.699713L655.901918 290.699713zM265.111003 587.241985c0-18.944564 14.518897-34.29892 32.379625-34.29892l0.587078 0c6.70624-90.500375 77.968512-181.02333 165.059316-181.02333 4.967585 0 9.844851 0.361279 14.722117 0.970937 1.716075 0.180639 3.45473 0.519338 5.215965 0.790298 3.003131 0.474179 5.983682 1.061257 8.941654 1.716075 2.167674 0.519338 4.245028 1.151577 6.435281 1.716075 2.325733 0.654818 4.628886 1.445116 6.93204 2.212834 2.483793 0.880617 4.967585 1.716075 7.383638 2.777332 1.422536 0.519338 2.822492 1.241896 4.199868 1.851555 61.010981 27.4572 105.96763 98.109813 111.251334 168.965645l0.474179 0c17.928467 0 32.424785 15.354355 32.424785 34.29892 0 13.976979-7.902977 26.034664-19.125204 31.386108 6.457861 20.32194 10.07065 42.021257 10.07065 64.75925 0 91.742271-58.211069 168.965645-137.624697 192.719735-1.309636 0.361279-2.551533 0.722558-3.838589 1.083837-6.074002 1.625755-12.238324 2.912811-18.470386 4.019228-1.919294 0.316119-3.770849 0.654818-5.712723 0.903197-7.654598 0.970937-15.399515 1.670915-23.279912 1.670915-104.387034 0-188.994046-89.755237-188.994046-200.396913 0-22.737993 3.590209-44.43731 10.16097-64.75925C273.01398 613.276648 265.111003 601.241544 265.111003 587.241985L265.111003 587.241985zM265.111003 587.241985"  horiz-adv-x="1024" />

    
    <glyph glyph-name="yaoqing" unicode="&#59042;" d="M721.048574 294.321396c11.821326-9.398434 30.739826-4.698609 40.195427 9.402083 4.731449 7.050954 4.731449 14.097044 4.731449 21.147998-2.365725 7.050954-7.098391 14.101909-11.824975 18.800518-16.549126 9.398434-33.101902 21.147998-52.011888 28.198952 23.637786 23.499127 42.556286 49.350599 54.377612 79.900681 14.187051 32.897561 21.280576 68.146252 21.280576 105.747288 0 145.701885-118.21934 263.203601-264.809132 263.203601-146.588576 0-262.442191-119.849196-262.442191-265.549865 0-70.498597 28.374101-136.303451 78.023913-185.649185C174.887266 299.020005 75.586426 146.273247 75.586426-22.926549c0-16.454254 11.821326-28.203818 28.374101-28.203818 16.549126 0 28.369236 11.749563 28.369236 28.203818 0 157.445367 99.30084 298.447427 245.889415 352.496635 82.757795-49.345734 189.150944-46.998254 269.536932 0C673.764487 320.172868 699.772863 308.423305 721.048574 294.321396L721.048574 294.321396zM512.987644 350.72295c-113.486674 0-205.698854 91.65146-205.698854 204.449702s92.21218 204.449702 205.698854 204.449702c113.492756 0 205.698854-91.65146 205.698854-204.449702 0-28.198952-4.726584-56.401554-16.54791-82.248161-9.45925-23.505209-26.008376-44.65199-44.926876-63.452508C619.386875 371.870948 567.365257 350.72295 512.987644 350.72295L512.987644 350.72295zM512.987644 350.72295M917.273582 132.774629l-93.413895 0 0 93.413895c0 17.199853-13.940139 31.139992-31.133911 31.139992-17.199853 0-31.139992-13.940139-31.139992-31.139992l0-93.413895-93.413895 0c-17.194987 0-31.133911-13.938923-31.133911-31.133911 0-17.199853 13.938923-31.139992 31.133911-31.139992L761.585784 70.500726l0-93.413895c0-17.193771 13.940139-31.133911 31.139992-31.133911 17.193771 0 31.133911 13.940139 31.133911 31.133911l0 93.413895L917.273582 70.500726c17.199853 0 31.139992 13.940139 31.139992 31.139992C948.413574 118.835705 934.473435 132.774629 917.273582 132.774629L917.273582 132.774629zM917.273582 132.774629"  horiz-adv-x="1024" />

    
    <glyph glyph-name="zixun" unicode="&#58881;" d="M800.966763 343.101134 800.966763 675.427343c0 58.887642-50.206567 106.816955-111.921672 106.816955L171.879241 782.244299c-12.807642 0-23.16991-9.903761-23.16991-22.14591 0-12.226866 10.362269-22.14591 23.16991-22.14591l517.211701 0c36.130388 0 65.566567-28.060657 65.566567-62.555701l0-332.326209c0-34.540896-29.436179-62.601552-65.566567-62.601552L419.763659 280.469015c-5.731343 0-11.233433-2.017433-15.528119-5.685493L216.568435 113.480597l-0.030567 144.873075c0 12.242149-10.392836 22.130627-23.185194 22.130627L111.967599 280.484299c-36.145672 0-65.566567 28.060657-65.566567 62.601552L46.401032 675.427343c0 12.196299-10.362269 22.14591-23.185194 22.14591-12.822925 0-23.215761-9.919045-23.215761-22.14591l0-332.326209c0-58.902925 50.237134-106.847522 111.952239-106.847522l58.199881 0L170.198047 63.808955c0-8.757493 5.379821-16.659104 13.73994-20.220179 3.010866-1.299104 6.235701-1.925731 9.445254-1.925731 5.609075 0 11.172299 1.956299 15.528119 5.71606l219.77791 188.874507 260.447522 0C750.790763 236.253612 800.966763 284.198209 800.966763 343.101134M925.543241 596.243104l-79.780299 0c-12.822925 0-23.200478-9.888478-23.200478-22.14591 0-12.257433 10.377552-22.14591 23.200478-22.14591l79.780299 0c36.757015 0 65.581851-26.440597 65.581851-60.20203l0-273.408c0-36.680597-32.951403-53.110448-65.581851-53.110448l-72.887403 0c-6.144 0-12.07403-2.323104-16.399284-6.510806-4.355821-4.141851-6.78591-9.781493-6.78591-15.650388l0.21397-143.222448L645.395181 159.499463c-4.279403 3.698627-9.827343 5.71606-15.57397 5.71606L550.178464 165.215522c-22.176478 0-41.586627 7.274985-53.202149 19.914507-8.467104 9.185433-23.12406 10.087164-32.722149 1.986866-9.613373-8.054448-10.560955-22.038925-2.093851-31.239642 20.449433-22.207045 52.544955-34.938269 88.064-34.938269l70.686567 0 216.476657-187.514269c4.355821-3.759761 9.934328-5.731343 15.604537-5.731343 3.178985 0 6.388537 0.626627 9.399403 1.895164 8.421254 3.545791 13.785791 11.508537 13.785791 20.281313l-0.275104 171.084418 49.671642 0c64.878806 0 111.952239 40.96 111.952239 97.356418L1037.526047 491.718687C1037.495479 550.377075 988.312912 596.243104 925.543241 596.243104"  horiz-adv-x="1039" />

    
    <glyph glyph-name="paihangbang2" unicode="&#59006;" d="M908.194909 851.456L795.461818 623.290182c-96.349091 91.787636-258.187636 101.794909-258.187636 101.794909L612.724364 874.170182c3.630545 12.753455 13.637818 21.829818 27.275636 21.829818h246.365091c15.453091 0 28.16-12.706909 28.16-28.16a26.158545 26.158545 0 0 0-6.330182-16.384z m3.630546-581.818182c0-219.089455-178.176-397.265455-398.196364-397.265454S116.363636 49.617455 116.363636 269.637818c0 219.089455 178.176 397.265455 398.196364 397.265455s397.265455-178.176 397.265455-397.265455z m-211.781819 90.903273l-108.218181 15.453091-48.174546 98.210909c-16.384 33.605818-42.728727 32.721455-59.112727 0l-48.174546-97.28-109.102545-16.384c-37.236364-5.445818-44.544-29.975273-18.152727-56.32l78.196363-76.381091-18.199272-108.218182c-6.376727-37.236364 15.453091-51.805091 47.243636-34.536727l97.28 50.920727 97.28-50.920727c33.652364-17.268364 53.620364-1.815273 47.290182 34.536727l-18.199273 108.218182 78.196364 77.265455c27.275636 26.344727 18.152727 50.874182-18.152728 55.435636zM115.432727 851.456a25.367273 25.367273 0 0 0-5.445818 16.384c0 15.453091 12.753455 28.16 28.206546 28.16h246.36509c13.637818 0 23.645091-9.076364 27.275637-21.829818l75.403636-149.085091s-162.676364-10.007273-258.141091-101.794909L115.432727 851.456z"  horiz-adv-x="1024" />

    
    <glyph glyph-name="xiala2" unicode="&#58890;" d="M695.040 71.68c12.8 12.8 12.799 33.28 0 45.44l-295.040 296.96 295.040 298.24c12.8 12.8 12.799 33.28 0 45.44-12.159 12.8-32.64 12.8-45.44 0l-314.24-317.44c-1.28-1.28-3.2-1.28-4.48-2.56-12.8-12.8-12.799-33.28 0-45.44l318.080-320c12.799-13.44 33.28-13.44 46.080-0.64z"  horiz-adv-x="1024" />

    
    <glyph glyph-name="jinrongleiicontubiao-" unicode="&#58902;" d="M810.666667-128H213.333333c-117.333333 0-213.333333 96-213.333333 213.333333V682.666667C0 800 96 896 213.333333 896h597.333334c117.333333 0 213.333333-96 213.333333-213.333333v-597.333334c0-117.333333-96-213.333333-213.333333-213.333333zM263.111111 81.777778h83.2v156.444444H263.111111v-156.444444z m138.666667 0h83.2V311.466667H401.777778v-229.688889z m155.733333 0h83.2V370.488889H557.511111v-288.711111z m150.044445 0h83.2V453.688889H707.555556v-371.911111z m73.955555 440.177778l32.711111 164.266666-187.022222-36.977778 57.6-47.644444-162.133333-148.622222-80.355556 63.288889-232.533333-209.777778 34.133333-29.155556 200.533333 181.333334 80.355556-64 194.133333 177.777777 62.577778-50.488888z m0 0"  horiz-adv-x="1024" />

    
    <glyph glyph-name="jinrongleiicontubiao-1" unicode="&#58903;" d="M810.666667-128H213.333333c-117.333333 0-213.333333 96-213.333333 213.333333V682.666667C0 800 96 896 213.333333 896h597.333334c117.333333 0 213.333333-96 213.333333-213.333333v-597.333334c0-117.333333-96-213.333333-213.333333-213.333333zM359.822222 430.933333H222.577778c-12.088889 0-22.044444 9.955556-22.044445 22.044445V469.333333c0 12.088889 9.955556 22.044444 22.044445 22.044445h137.244444c12.088889 0 22.044444-9.955556 22.044445-22.044445v-16.355555c0-12.088889-9.955556-22.044444-22.044445-22.044445zM359.822222 345.6H222.577778c-12.088889 0-22.044444 9.955556-22.044445 22.044444V384c0 12.088889 9.955556 22.044444 22.044445 22.044444h137.244444c12.088889 0 22.044444-9.955556 22.044445-22.044444v-16.355556c0-12.088889-9.955556-22.044444-22.044445-22.044444zM359.822222 260.266667H222.577778c-12.088889 0-22.044444 9.955556-22.044445 22.044444V298.666667c0 12.088889 9.955556 22.044444 22.044445 22.044444h137.244444c12.088889 0 22.044444-9.955556 22.044445-22.044444v-16.355556c0-12.088889-9.955556-22.044444-22.044445-22.044444zM359.822222 178.488889H222.577778c-12.088889 0-22.044444 9.955556-22.044445 22.044444v16.355556c0 12.088889 9.955556 22.044444 22.044445 22.044444h137.244444c12.088889 0 22.044444-9.955556 22.044445-22.044444v-16.355556c0-12.088889-9.955556-22.044444-22.044445-22.044444zM317.866667 508.444444v99.555556c0 12.088889 9.955556 22.044444 22.044444 22.044444h89.6v44.088889H317.866667c-24.177778 0-44.088889-19.911111-44.088889-44.088889v-121.6h44.088889zM361.955556 585.955556v-44.088889h309.333333v44.088889c0 12.088889-9.955556 22.044444-22.044445 22.044444H583.111111s0.711111 24.888889 0.711111 63.288889c0 35.555556-31.288889 68.266667-68.266666 68.266667s-65.422222-31.288889-65.422223-68.266667v-64H384c-12.088889 0.711111-22.044444-9.244444-22.044444-21.333333z m153.6 87.466666c12.088889 0 22.044444-9.955556 22.044444-22.044444 0-12.088889-9.955556-22.044444-22.044444-22.044445-12.088889 0-22.044444 9.955556-22.044445 22.044445 0 12.088889 9.955556 22.044444 22.044445 22.044444zM714.666667 608v-218.311111s19.2 20.622222 44.088889 31.288889V629.333333c0 24.177778-21.333333 44.088889-45.511112 44.088889H605.155556v-44.088889h88.177777c12.088889 0 21.333333-9.244444 21.333334-21.333333zM470.044444 78.933333H339.911111c-12.088889 0-22.044444 9.955556-22.044444 22.044445v60.444444h-44.088889v-82.488889c0-24.177778 19.911111-44.088889 44.088889-44.088889h200.533333c-8.533333 14.222222-24.177778 31.288889-48.355556 44.088889zM714.666667 100.977778c0-12.088889-9.955556-22.044444-22.044445-22.044445H632.888889c-11.377778-14.933333-21.333333-29.866667-31.288889-44.088889h111.644444c24.177778 0 45.511111 19.911111 45.511112 44.088889v135.111111c-14.222222-12.088889-29.155556-25.6-44.088889-40.533333v-72.533333zM807.111111 273.066667c-24.888889 54.755556-10.666667 99.555556-7.111111 151.466666C654.933333 352 562.488889 135.111111 562.488889 135.111111l-56.888889 106.666667-87.466667-51.911111v-29.155556h-2.133333c46.222222-24.177778 103.822222-72.533333 153.6-132.266667 42.666667 75.377778 173.511111 230.4 237.511111 244.622223z"  horiz-adv-x="1024" />

    
    <glyph glyph-name="jinrongleiicontubiao-2" unicode="&#58904;" d="M810.666667-128H213.333333c-117.333333 0-213.333333 96-213.333333 213.333333V682.666667C0 800 96 896 213.333333 896h597.333334c117.333333 0 213.333333-96 213.333333-213.333333v-597.333334c0-117.333333-96-213.333333-213.333333-213.333333zM572.444444 704c-76.088889 0-137.955556-61.866667-137.955555-137.955556s61.866667-137.955556 137.955555-137.955555S711.111111 489.955556 711.111111 566.044444 649.244444 704 572.444444 704z m64-135.111111v-27.022222h-46.933333v-11.377778h46.933333v-27.733333h-46.933333v-32.711112h-36.977778v32.711112h-46.933333v27.022222h46.933333v11.377778h-46.933333V568.888889h41.244444l-62.577777 71.822222H526.222222l46.933334-50.488889 41.244444 51.2h41.244444L595.2 568.888889h41.244444z m0 0M791.466667 368.355556s0-61.155556-37.688889-51.2c0 0-5.688889 83.2-96.711111 123.733333l-32.711111-22.044445s40.533333-20.622222 17.066666-37.688888c-9.244444-6.4-59.733333 12.088889-59.733333 12.088888s-48.355556 15.644444-102.4 7.822223c-24.177778-3.555556-28.444444 12.8-27.733333 21.333333 0 0 10.666667 17.777778 29.866666 19.911111l-29.155555 29.866667-35.555556-11.377778s-10.666667-7.822222-16.355555 7.822222c-5.688889 15.644444-41.955556 14.933333-64.711112 13.511111l2.844445-56.888889c-3.555556-2.844444-60.444444-50.488889-68.266667-93.866666 0 0-48.355556 2.844444-48.355555-31.288889v-42.666667s2.844444-28.444444 48.355555-29.866666c0 0 26.311111-73.244444 68.266667-89.6v-34.133334s-5.688889-20.622222 27.733333-25.6c33.422222-5.688889 58.311111-4.266667 58.311111-4.266666s21.333333-1.422222 21.333334 12.8c0 0 111.644444-19.911111 145.777777 5.688888v-15.644444s-6.4-12.8 22.044445-11.377778c28.444444 1.422222 61.866667 0 61.866667 0s17.066667-2.844444 20.622222 18.488889v57.6s67.555556 54.044444 64.711111 140.088889c-1.422222-2.133333 66.844444 4.977778 30.577778 86.755556zM382.577778 348.444444c-7.822222-13.511111-19.2-21.333333-25.6-17.777777-6.4 3.555556-5.688889 17.777778 1.422222 31.288889 7.822222 13.511111 19.2 21.333333 25.6 17.777777 7.111111-4.266667 5.688889-18.488889-1.422222-31.288889z m0 0"  horiz-adv-x="1024" />

    
    <glyph glyph-name="user1" unicode="&#58885;" d="M272.64 656.64c0-132.195 107.165-239.36 239.36-239.36s239.36 107.165 239.36 239.36c0 132.195-107.165 239.36-239.36 239.36-132.195 0-239.36-107.165-239.36-239.36zM512 417.28c-282.77 0-512-229.23-512-512v-33.28h1024v33.28c0 282.77-229.23 512-512 512z"  horiz-adv-x="1024" />

    
    <glyph glyph-name="shouji1" unicode="&#58897;" d="M516.16768 384m-492.47232 0a492.47232 492.47232 0 1 1 984.94464 0 492.47232 492.47232 0 1 1-984.94464 0ZM646.98368 53.95968h-261.632c-43.21792 0-78.35648 35.17952-78.35648 78.3872V635.65824c0 43.21792 35.16416 78.38208 78.35648 78.38208h261.632c43.21792 0 78.3616-35.18976 78.3616-78.38208v-503.31136c0-43.20768-35.13856-78.3872-78.3616-78.3872z m-261.632 627.17952c-25.06752 0-45.43488-20.38784-45.43488-45.45536v-503.31648c0-25.08288 20.39296-45.45536 45.43488-45.45536h261.632c25.06752 0 45.43488 20.38784 45.43488 45.45536V635.65824c0 25.088-20.38784 45.45536-45.43488 45.45536h-261.632v0.0256z m130.816-586.14784a23.1168 23.1168 0 0 0-23.0912 23.0912c0 12.72832 10.35776 23.0656 23.0912 23.0656s23.0912-10.35776 23.0912-23.0912-10.35776-23.0656-23.0912-23.0656z m0 32.91648c-5.42208 0-9.8304-4.41344-9.8304-9.8304 0-5.4272 4.40832-9.84064 9.8304-9.84064s9.83552 4.41344 9.83552 9.84064c0 5.41696-4.41344 9.8304-9.83552 9.8304z m25.30816 509.66016h-50.6368a16.46592 16.46592 0 0 0 0 32.9216h50.6368c9.08288 0 16.46592-7.3728 16.46592-16.4608s-7.38304-16.4608-16.46592-16.4608z m167.40864-470.94272H323.456a16.46592 16.46592 0 0 0 0 32.92672h385.42848a16.46592 16.46592 0 0 0 0-32.92672z m0 406.21568H323.456a16.46592 16.46592 0 0 0 0 32.9216h385.42848a16.46592 16.46592 0 0 0 0-32.9216z"  horiz-adv-x="1024" />

    
    <glyph glyph-name="weixin" unicode="&#58991;" d="M582.162963 383.051852c-12.325926 0-24.651852-12.325926-24.651852-24.651852s12.325926-24.651852 24.651852-24.651852c18.962963 0 30.340741 12.325926 30.340741 24.651852s-11.377778 24.651852-30.340741 24.651852zM502.518519 499.674074c18.014815 0 30.340741 12.325926 30.34074 30.340741 0 18.014815-12.325926 30.340741-30.34074 30.340741-18.014815 0-36.977778-12.325926-36.977778-30.340741 0-18.014815 18.962963-30.340741 36.977778-30.340741zM330.903704 561.303704c-18.014815 0-36.977778-12.325926-36.977778-30.340741 0-18.014815 18.014815-30.340741 36.977778-30.340741s30.340741 12.325926 30.34074 30.340741c0 18.014815-12.325926 30.340741-30.34074 30.340741zM512 896C229.451852 896 0 666.548148 0 384s229.451852-512 512-512 512 229.451852 512 512S794.548148 896 512 896zM410.548148 248.414815c-30.340741 0-54.992593 6.637037-85.333333 12.325926l-85.333334-42.666667 24.651852 73.955556c-61.62963 42.666667-97.659259 98.607407-97.659259 165.925926 0 116.622222 109.985185 208.592593 245.57037 208.592592 120.414815 0 225.659259-73.007407 247.466667-172.562963-7.585185 0.948148-16.118519 1.896296-23.703704 1.896296-116.622222 0-208.592593-87.22963-208.592592-194.37037 0-18.014815 2.844444-35.081481 7.585185-51.2-9.481481-1.896296-17.066667-1.896296-24.651852-1.896296z m361.244445-86.281482l18.014814-61.629629-67.318518 36.977777c-24.651852-6.637037-49.303704-12.325926-73.955556-12.325925-116.622222 0-208.592593 79.644444-208.592592 178.251851 0 97.659259 91.97037 178.251852 208.592592 178.251852 109.985185 0 208.592593-79.644444 208.592593-178.251852 0.948148-54.992593-36.02963-104.296296-85.333333-141.274074zM716.8 383.051852c-12.325926 0-24.651852-12.325926-24.651852-24.651852s12.325926-24.651852 24.651852-24.651852c18.014815 0 30.340741 12.325926 30.340741 24.651852s-11.377778 24.651852-30.340741 24.651852z"  horiz-adv-x="1024" />

    
    <glyph glyph-name="paihangbang" unicode="&#58954;" d="M974.26476 690.070884l-4.554735 26.429952H808.038902c0.063445 4.554736 0.124843 9.04705 0.124843 12.896728 0 39.454594-50.163493 119.456672-112.014166 119.456673H360.046704c-61.84658 0-114.068965-74.743308-112.014166-119.456673 0.127913-3.208065 0.320295-7.699356 0.576121-12.896728H86.426907l-4.554736-26.429952c-0.835018-4.492314-18.35095-110.8609 44.139289-194.71061 34.129308-45.744857 85.389786-74.29203 150.892639-87.123267 40.929178-105.407702 122.150014-196.376553 219.088834-213.249848V14.708236h-107.907639c-17.708314 0-32.077579-14.304797-32.077579-32.007995 0-17.712407 14.369266-32.015158 32.077579-32.015157h280.097326c17.706267 0 32.079626 14.304797 32.079626 32.015157 0 17.705244-14.373359 32.007995-32.079626 32.007995H560.145022V194.988182c96.997148 16.871249 178.217984 107.842147 219.218793 213.249849 65.431222 12.831236 116.693746 41.379433 150.827148 87.123266 62.417585 83.848687 44.906769 190.217273 44.073797 194.709587z m-797.892309-156.412352c-29.959336 39.84038-34.770921 89.112574-34.517141 118.880551h109.705588c2.759857-56.778144 6.480598-129.146359 10.074449-175.144996-36.44198 11.484565-65.505923 29.897937-85.262896 56.264445z m703.388959 0c-19.629059-26.176173-48.372707-44.457538-84.4903-55.94108 4.040013 45.100174 8.336876 115.927289 10.775414 174.822654h108.166536c0.319272-29.769001-4.491291-79.041194-34.45165-118.881574z"  horiz-adv-x="1024" />

    
    <glyph glyph-name="msld" unicode="&#58930;" d="M228.624 270.448h74.059c-14.268 189.227-97.733 325.348-97.733 325.348 24.537 7.582 81.673-27.225 81.673-27.225-82.121 128.54-186.54 120.478-186.54 120.478 145.463-195.465 128.54-418.602 128.54-418.602zM795.376 270.448s-16.987 223.137 128.54 418.602c0 0-104.483 8.030-186.508-120.51 0 0 57.040 34.806 81.673 27.223 0 0-83.465-136.122-97.796-325.317h74.091zM376.742 270.448h79.402s33.878 42.964 55.6 123.741c21.754-80.777 55.568-123.741 55.568-123.741h79.37c-86.601 120.478-109.185 249.882-111.873 315.079-0.602 12.45-0.945 27.039-0.945 41.709 0 25.111 1.005 49.986 2.978 74.589 60.542-40.447 81.913-40.447 81.913-40.447 16.219 0.896 5.406 9.821 5.406 9.821-68.589 48.178-96.581 132.091-101.092 182.957-3.391 38.517-8.862 42.228-11.325 41.78-2.463 0.48-7.966-3.263-11.357-41.78-4.543-50.866-32.503-134.778-101.092-182.957 0 0-10.813-8.925 5.438-9.821 0 0 21.37 0 82.121 37.206 0 0 4.543-47.923 1.791-113.056-2.655-65.198-25.273-194.601-111.905-315.079zM232.175 64.714h21.69s50.002-5.183 48.818 52.657h-70.508v-52.657zM769.657 64.714h21.69v52.657h-70.54c-1.152-57.84 48.85-52.657 48.85-52.657zM200.919 251.413h621.265v-29.721h-621.265zM230.095 204.962h562.914v-29.721h-562.914zM200.919 160.943h621.265v-29.751h-621.265zM507.233 117.371h-159.699v-6.366s89.863 2.335 96.421-104.163h135.29c6.558 106.498 96.421 104.163 96.421 104.163v6.366h-168.433zM416.507-12.225h191.018v-48.178h-191.018zM439.7-75.855h144.567v-52.401h-144.567z"  horiz-adv-x="1024" />

    
    <glyph glyph-name="benchi" unicode="&#58932;" d="M585.248 426.208l332.8-259.936a461.568 461.568 0 0 1 54.624 217.632 460.16 460.16 0 0 1-61.76 230.4A460.896 460.896 0 0 1 526.4 844.416l58.848-418.208zM120.48 141.312a461.216 461.216 0 0 1 391.456-218.016c80.928 0 160.288 21.376 230.24 61.824a459.2 459.2 0 0 1 161.376 156.192L512 299.392l-391.52-158.08zM497.6 844.384a460.576 460.576 0 0 1-446.24-460.48c0-75.904 18.88-150.752 54.624-217.632l332.864 259.936L497.6 844.384z m-241.504-903.68c-77.824 44.896-142.464 109.504-187.328 187.36S0.16 294.08 0.16 383.872a512.064 512.064 0 0 0 511.808 512 512 512 0 0 0 511.84-511.936c0-89.824-23.424-177.952-68.576-255.808a510.304 510.304 0 0 0-187.264-187.36 512.192 512.192 0 0 0-511.872-0.064"  horiz-adv-x="1024" />

    
    <glyph glyph-name="chenggong1" unicode="&#58961;" d="M512 896a512 512 0 1 1 512-512A512 512 0 0 1 512 896z m252.586667-377.787733l-307.2-307.2a27.306667 27.306667 0 0 0-38.0928-0.546134L260.027733 361.745067a27.306667 27.306667 0 0 0 37.546667 39.662933l140.219733-132.846933 288.085334 288.290133a27.306667 27.306667 0 1 0 38.7072-38.638933z"  horiz-adv-x="1024" />

    
    <glyph glyph-name="jiantou-copy" unicode="&#58887;" d="M647.764 405.018c12.499 12.499 32.755 12.499 45.253 0v0c12.499-12.499 12.499-32.755 0-45.253l-316.781-316.781c-12.499-12.499-32.755-12.499-45.253 0v0c-12.499 12.499-12.499 32.755 0 45.253l316.781 316.781zM330.983 679.763c-12.499 12.499-12.499 32.755 0 45.253v0c12.499 12.499 32.755 12.499 45.253 0l316.781-316.781c12.499-12.499 12.499-32.755 0-45.253v0c-12.499-12.499-32.755-12.499-45.253 0l-316.781 316.781z"  horiz-adv-x="1024" />

    
    <glyph glyph-name="tishi" unicode="&#58895;" d="M511.983709 896a511.983709 511.983709 0 1 1 512.016291-511.983709A511.983709 511.983709 0 0 1 511.983709 896z m62.882052-722.394222c-4.919787-45.613923-50.761781-65.781794-88.328105-49.849502-19.907219 8.438576-30.561329 25.348309-34.829488 46.23297a113.806739 113.806739 0 0 0-1.205511 12.511247c0.390976 15.117757 2.964905 29.583887 13.032549 41.508671 13.456107 16.290687 31.441026 22.611473 51.93471 21.568869 40.433485-2.052627 63.79433-32.353304 59.52617-71.972255zM579.948455 575.85542c-3.453626-22.611473-11.110248-46.558783-15.736803-69.854465-5.799485-29.062586-11.403481-58.646473-15.867129-87.96971-4.26816-28.052563-7.037577-57.310637-10.328296-85.493525-1.400999-11.989946-2.541347-25.446053-3.812021-38.087626h-41.2806a31.082631 31.082631 0 0 0-0.586465 4.496229c-4.659136 35.448535-8.699227 73.014859-14.205479 108.300487-5.21302 33.395908-11.664132 66.661491-18.343314 99.796748-4.137834 20.428521-10.132807 40.498648-14.95485 60.764263a110.255369 110.255369 0 0 0-2.736836 26.488657c2.867161 26.065099 18.538802 51.902129 51.44599 59.004868a195.227592 195.227592 0 0 0 28.313214 1.400999c26.065099-2.182952 47.764294-16.811989 56.268032-41.476089a75.425881 75.425881 0 0 0 1.824557-37.370836z"  horiz-adv-x="1024" />

    
    <glyph glyph-name="artop" unicode="&#58893;" d="M992.129 199.921c0-7.536-2.559-15.116-7.794-21.333-11.791-13.999-32.699-15.788-46.697-3.998l-416.772 351.049-400.435-334.848c-14.041-11.742-34.94-9.878-46.682 4.163s-9.877 34.94 4.164 46.681l421.772 352.69c12.339 10.32 30.307 10.287 42.609-0.075l438.047-368.965c7.783-6.556 11.79-15.927 11.791-25.363z"  horiz-adv-x="1024" />

    
    <glyph glyph-name="zhifu" unicode="&#58975;" d="M583.992 366.03h108.041v-72.048H583.992V366.03zM187.926 366.03H512v-72.048H187.926V366.03zM872.068 762.094H151.93c-59.697 0-108.042-48.345-108.042-107.986v-540.16c0-59.64 48.345-108.042 108.042-108.042h720.138c59.697 0 108.043 48.401 108.043 108.042v540.16c0 59.641-48.346 107.986-108.043 107.986z m72.048-648.146c0-39.761-32.23-71.991-72.048-71.991H151.93c-39.816 0-72.047 32.23-72.047 71.991V510.07h864.232v-396.12z m0 468.11H79.884v72.05c0 39.761 32.23 71.991 72.047 71.991H872.07c39.817 0 72.048-32.23 72.048-71.991v-72.05zM187.926 221.991h288.078v-72.048H187.926v72.048z"  horiz-adv-x="1024" />

    
    <glyph glyph-name="kefudianhua" unicode="&#59035;" d="M577.065652 719.897843c16.509577-4.709709 32.225671-10.212901 47.199473-16.509577 81.70321-34.0686 134.124317-88.102271 161.793857-151.785726 27.336788-62.992356 29.870816-134.533857 12.158216-204.693161a407.748163 407.748163 0 0 0-15.434535-47.916168l-84.134854 26.645689c5.682366 13.89876 10.366479 28.258253 14.129127 42.924901 12.977296 51.678816 11.51831 103.408825-7.781258 147.843904-19.018009 43.769577-56.004581 81.344863-114.440806 105.712487a334.235751 334.235751 0 0 1-40.13491 13.617202l26.64569 84.160449z m93.451886-777.92104l48.863229 24.981934c-27.567155 127.162139-145.872993 273.828616-171.597218 281.174737l-25.954591-13.258854-25.903399-13.28445-38.164-19.529934-7.62768-3.890629-59.844018-30.561915c-83.699717 126.0615-98.417557 169.26796-153.167923 315.038568l52.241934 26.722478 76.635154 39.111061 22.319924 11.441521c10.136113 45.433333-66.678215 255.962438-124.756092 305.056033l-43.795173-22.396714-39.034272-19.939474-22.703868-11.595098-22.678272-11.569502C58.229791 758.496979 24.212383 705.282388 33.375838 639.704811l0.537521-2.738798-0.307155-0.20477C89.226842 349.90414 199.905 122.737476 396.330574-90.581619c47.83938-45.766084 110.908524-49.40075 189.258627-10.852807l29.922009 15.280957 55.006328 28.130272z m-111.343661 567.69909a82.343116 82.343116 0 1 1-49.60552-156.981763 82.343116 82.343116 0 0 1 49.60552 156.981763zM632.814271 895.974404L606.168581 811.788358c16.688751-3.916225 33.172732-8.958685 49.298365-15.024995 83.162196-31.457784 154.294157-90.96905 198.882814-169.6775 44.691042-78.938816 62.685201-177.50995 39.495004-286.985085-4.812094-22.729464-11.415925-46.073239-19.990666-69.877745l84.083661-26.620094a610.726376 610.726376 0 0 1 21.987173 77.966159c28.053483 132.409369 5.86154 252.327771-48.812037 348.979187-54.878347 96.856186-142.289519 170.061443-244.444128 208.686175A470.894096 470.894096 0 0 1 632.814271 895.974404z"  horiz-adv-x="1024" />

    
    <glyph glyph-name="cunqian" unicode="&#58974;" d="M833.536-109.568H198.656c-70.117376 0-126.976 59.056128-126.976 131.8912v131.8912h63.488v-131.8912c0-36.415488 28.422144-65.9456 63.488-65.9456h634.88c35.06176 0 63.488 29.528064 63.488 65.9456V747.7248c0 36.425728-28.434432 65.9456-63.488 65.9456H198.656c-35.065856 0-63.488-29.52192-63.488-65.9456v-131.8912H71.68V747.7248C71.68 820.559872 128.534528 879.616 198.656 879.616h634.88c70.12352 0 126.976-59.056128 126.976-131.8912v-725.4016c0-72.835072-56.850432-131.8912-126.976-131.8912zM171.165696 582.404096a27.058176 27.058176 0 0 0 0 39.1168 29.2864 29.2864 0 0 0 40.454144 0l197.2224-190.818304a31.143936 31.143936 0 0 0 0-41.89184l-197.234688-190.818304a29.304832 29.304832 0 0 0-40.448 0 27.068416 27.068416 0 0 0 0 39.1168l149.880832 145.012736H100.25984a27.670528 27.670528 0 1 0 0 55.310336h220.786688l-149.880832 144.971776zM667.467776 88.2688h-44.353536v60.123136q-122.228736 10.082304-156.403712 117.006336l70.641664 16.246784q19.058688-68.585472 85.762048-73.7792v128.382976q-87.072768 19.808256-113.36704 50.208768t-26.281984 72.640512q0 109.508608 139.640832 126.414848V632.32h44.353536v-46.7968q102.1952-12.99456 129.130496-99.766272l-66.68288-13.983744q-17.082368 50.038784-62.429184 53.94432v-113.41824q64.401408-18.204672 86.740992-27.953152t40.2432-38.029312q17.903616-28.2624 17.907712-66.297856 0-53.952512-37.128192-89.7024t-107.773952-41.930752V88.2688z m-44.353536 437.4528q-28.592128-0.323584-47.808512-14.1312t-19.22048-40.790016q0-45.504512 67.028992-54.272V525.7216zM667.467776 207.872q30.889984 0.3072 51.748864 17.870848t20.86912 45.821952q0 47.450112-72.617984 60.770304V207.872z"  horiz-adv-x="1024" />

    
    <glyph glyph-name="shijian" unicode="&#58966;" d="M512-128C229.242435-128 0 101.242435 0 384S229.242435 896 512 896 1024 666.757565 1024 384 794.757565-128 512-128z m0 979.478261C253.818435 851.478261 44.521739 642.181565 44.521739 384S253.818435-83.478261 512-83.478261 979.478261 125.818435 979.478261 384 770.181565 851.478261 512 851.478261z m230.622609-729.444174L508.393739 317.217391H489.73913v15.538087l-14.246956 11.887305L489.73913 361.73913V673.391304h44.52174v-319.799652l236.855652-197.364869-28.493913-34.192696z"  horiz-adv-x="1024" />

    
    <glyph glyph-name="shezhi-" unicode="&#58915;" d="M943.282087 430.124522l-58.212174-33.391305c0.133565-4.229565 0.222609-8.45913 0.222609-12.710956s0-8.503652-0.222609-12.710957l58.212174-33.391304a66.537739 66.537739 0 0 0 24.620522-91.269565l-112.038957-192.779131a67.494957 67.494957 0 0 0-91.803826-24.486956l-58.612869 33.658435q-10.729739-6.678261-21.815653-12.555131V-16.695652a67.072 67.072 0 0 0-67.227826-66.782609H392.347826a67.072 67.072 0 0 0-67.227826 66.782609v67.183304q-11.130435 5.89913-21.815652 12.555131l-58.590609-33.636174a67.517217 67.517217 0 0 0-91.826087 24.486956L40.870957 246.650435a66.649043 66.649043 0 0 0 24.486956 91.269565l58.234435 33.391304q-0.111304 6.299826-0.111305 12.688696t0.222609 12.710957l-58.234435 33.391304a66.537739 66.537739 0 0 0-24.486956 91.269565L152.909913 714.128696a67.494957 67.494957 0 0 0 91.826087 24.486956l58.590609-33.613913q10.729739 6.678261 21.815652 12.53287V784.695652a67.072 67.072 0 0 0 67.227826 66.782609h224.055652a67.072 67.072 0 0 0 67.227826-66.782609v-67.183304q11.130435-5.87687 21.815652-12.53287l58.590609 33.613913a67.472696 67.472696 0 0 0 91.803826-24.486956l112.038957-192.779131a66.537739 66.537739 0 0 0-24.620522-91.202782z m-14.202435 69.008695L816.973913 691.867826a22.928696 22.928696 0 0 1-30.519652 8.236522l-82.610087-47.393391-11.620174 7.791304a339.010783 339.010783 0 0 1-40.826435 23.462956l-12.510608 6.032696V784.695652a22.26087 22.26087 0 0 1-22.416696 22.26087H392.347826a22.26087 22.26087 0 0 1-22.394435-22.26087v-94.697739l-12.577391-6.099478a337.497043 337.497043 0 0 1-40.826435-23.462957l-11.620174-7.791304L222.319304 700.104348a23.084522 23.084522 0 0 1-30.608695-8.147478L79.693913 499.088696a22.26087 22.26087 0 0 1 8.192-30.497392l82.253913-47.193043-0.957217-13.801739c-0.601043-7.791304-0.890435-15.671652-0.890435-23.596522s0.311652-15.805217 0.868174-23.618783l0.979478-13.890782L87.885913 299.408696a22.26087 22.26087 0 0 1-8.214261-30.408348l112.038957-192.779131a22.995478 22.995478 0 0 1 30.608695-8.147478l82.587826 47.393391 11.620174-7.791304a336.985043 336.985043 0 0 1 40.826435-23.507478l12.577391-6.099478V-16.695652a22.26087 22.26087 0 0 1 22.394435-22.26087h224.100174a22.26087 22.26087 0 0 1 22.461218 22.26087v94.675478l12.577391 6.099478a342.238609 342.238609 0 0 1 40.848695 23.507479l11.620174 7.791304 82.521044-47.482435a23.017739 23.017739 0 0 1 30.586435 8.125218l112.038956 192.801391a22.26087 22.26087 0 0 1-8.214261 30.408348l-82.253913 47.170782 1.001739 13.890783a330.128696 330.128696 0 0 1 0 47.237565l-1.001739 13.890783 82.365218 47.193043a22.149565 22.149565 0 0 1 8.102956 30.45287zM504.386783 184.987826a199.034435 199.034435 0 1 0 200.347826 199.012174 199.902609 199.902609 0 0 0-200.347826-199.012174z m0 353.52487A154.512696 154.512696 0 1 1 659.923478 384a155.202783 155.202783 0 0 1-155.536695 154.512696z"  horiz-adv-x="1024" />

    
    <glyph glyph-name="hezuo" unicode="&#59331;" d="M494.485563-54.594982c-17.327254 0-33.634179 6.624803-45.867126 18.857749L23.581362 389.299842c-12.232946 12.232946-18.857749 28.539871-18.857749 45.867126s6.624803 33.637849 18.857749 45.867125l319.032889 319.032889C354.839857 812.299928 371.154122 818.924731 388.481376 818.924731s33.637849-6.624803 45.867126-18.857749l109.061505-109.061505 104.477362 104.477362c12.229276 12.229276 28.539871 18.854079 45.867126 18.854079s33.637849-6.624803 45.867125-18.854079l265.520631-265.524301c12.232946-12.229276 18.857749-28.539871 18.857749-45.867126 0-17.323584-6.624803-33.634179-18.857749-45.867125l-119.763957-119.763957-6.114638 6.114638-5.097979-15.79676c-3.567484-10.702452-8.155297-18.857749-14.7801-25.482552l-319.032889-319.032889c-12.229276-12.232946-28.539871-18.857749-45.867125-18.857749zM388.481376 749.105548c-12.739441 0-24.972387-5.097978-34.144344-14.269935l-265.524301-265.524301c-9.175627-9.171957-14.269935-20.894738-14.269935-34.144344 0-12.739441 5.097978-24.972387 14.269935-34.144344l372.038653-372.038653c9.171957-9.171957 20.894738-14.269935 34.144344-14.269935 12.739441 0 24.972387 5.097978 34.144344 14.269935l19.878079 19.878079-207.934395 207.930724c-3.057319 3.057319-3.057319 8.661792 0 11.722782l26.499212 26.499211a8.441577 8.441577 0 0 0 6.118308 2.550824c2.040659 0 4.587814-1.02033 6.114638-2.547154l207.934394-207.934394 55.549248 55.549247-189.076646 189.076645c-3.057319 3.057319-3.057319 8.661792 0 11.722782l26.502882 26.499211a8.441577 8.441577 0 0 0 6.114638 2.550825c2.040659 0 4.587814-1.02033 6.118308-2.550825l189.072975-189.072975 55.552918 55.549248-170.218896 170.218896c-3.060989 3.057319-3.060989 8.661792 0 11.722781l26.499211 26.499212a8.441577 8.441577 0 0 0 6.114638 2.550824c2.040659 0 4.587814-1.02033 6.118308-2.550824l170.218897-170.218896 19.874408 19.878078c9.175627 9.175627 14.269935 20.894738 14.269936 34.144344 0 12.739441-5.094308 24.972387-14.269936 34.144345L424.156215 734.839283c-10.702452 9.175627-22.935398 14.269935-35.674839 14.269936z m305.273119-4.587813c-12.739441 0-24.972387-5.097978-34.144344-14.269936l-77.974481-77.97448 280.297061-280.300731 77.978151 77.97448c9.175627 9.175627 14.269935 20.894738 14.269935 34.144344 0 13.249606-5.097978 24.972387-14.269935 34.148015l-212.518538 212.518537c-9.175627 8.661792-20.898409 13.759771-33.637849 13.759771z"  horiz-adv-x="1024" />

    
    <glyph glyph-name="weixin2" unicode="&#58880;" d="M498.816 550.944c26.336 0 43.936 17.632 43.936 43.904 0 26.56-17.568 43.744-43.936 43.744s-52.832-17.184-52.832-43.744c0.032-26.272 26.496-43.904 52.832-43.904zM253.088 638.592c-26.336 0-52.96-17.184-52.96-43.744 0-26.272 26.624-43.904 52.96-43.904 26.24 0 43.808 17.632 43.808 43.904-0.032 26.56-17.568 43.744-43.808 43.744zM1024 269.888c0 138.88-128.832 257.216-286.976 269.536 0.224 1.728 0.32 3.52-0.064 5.312-31.712 147.84-190.688 259.296-369.824 259.296-202.432 0-367.136-141.152-367.136-314.656 0-93.088 47.52-176.96 137.568-243.104l-31.392-94.368c-2.016-6.144-0.192-12.896 4.704-17.152 2.976-2.56 6.72-3.904 10.496-3.904 2.432 0 4.896 0.576 7.168 1.696l117.856 58.976 14.528-2.944c36.288-7.456 67.616-13.92 106.208-13.92 11.36 0 22.88 0.512 34.176 1.472 4.576 0.384 8.448 2.688 11.072 6.016 42.496-106.336 159.616-183.104 297.44-183.104 35.296 0 71.040 8.512 103.104 16.544l90.848-49.664c2.4-1.312 5.056-1.984 7.68-1.984 3.584 0 7.168 1.216 10.048 3.552 5.056 4.096 7.136 10.848 5.248 17.024l-23.2 77.152c77.792 61.472 120.448 135.008 120.448 208.224zM398.592 208.032c-10.4-0.896-20.96-1.344-31.424-1.344-35.328 0-65.216 6.112-99.776 13.248l-20.096 4.064c-3.456 0.736-7.104 0.256-10.272-1.376l-88.288-44.192 22.944 68.928c2.24 6.752-0.224 14.112-6.016 18.176-88.704 61.824-133.664 137.152-133.664 223.84 0 155.84 150.336 282.656 335.136 282.656 163.36 0 308-99.392 337.856-231.584-171.296-2.24-309.888-122.656-309.888-270.56 0-21.504 3.264-42.336 8.768-62.432-1.664 0.416-3.424 0.736-5.28 0.576zM875.456 80.448c-5.344-4.032-7.616-10.976-5.696-17.376l15.136-50.336-62.112 33.984c-2.368 1.312-5.024 1.984-7.68 1.984-1.312 0-2.624-0.16-3.904-0.512-33.312-8.416-67.776-17.088-101.344-17.088-155.904 0-282.72 107.136-282.72 238.816 0 131.68 126.816 238.784 282.72 238.784 152.928 0 282.144-109.344 282.144-238.784 0-65.664-41.376-132.96-116.544-189.472zM612.992 384.032c-17.568 0-35.136-17.696-35.136-35.232 0-17.664 17.568-35.104 35.136-35.104 26.4 0 43.84 17.44 43.84 35.104 0 17.568-17.44 35.232-43.84 35.232zM806.016 384.032c-17.312 0-34.88-17.696-34.88-35.232 0-17.664 17.568-35.104 34.88-35.104 26.304 0 44.064 17.44 44.064 35.104 0 17.568-17.728 35.232-44.064 35.232z"  horiz-adv-x="1024" />

    
    <glyph glyph-name="anquan" unicode="&#58984;" d="M712.192 569.344l-233.472-236.032-102.912 105.984c-12.288 12.8-32.768 13.312-45.056 1.024-12.8-12.288-12.8-32.768-0.512-45.056L455.68 265.216h0.512c2.048-2.048 4.608-3.072 6.656-4.608 1.024-0.512 2.048-2.048 3.584-2.048 4.096-1.536 8.192-2.56 12.288-2.56 4.096 0 8.192 1.024 11.776 2.56 1.024 0.512 2.048 1.536 3.584 2.048 2.56 1.536 5.12 2.56 7.168 4.608h0.512l256 259.072c12.288 12.8 12.288 32.768 0 45.056-12.8 12.8-33.28 12.288-45.568 0zM889.344 583.168c-0.512 41.472-1.024 86.528-1.024 136.192 0 12.288-8.192 23.04-19.968 26.624-114.176 34.304-216.576 54.272-352.256 69.632h-4.608c-69.12-3.584-133.12-12.288-191.488-25.6-58.368-13.312-114.176-28.16-165.888-44.032-11.776-3.584-19.968-14.336-19.968-26.624 0-44.544-0.512-85.504-1.024-123.904-3.584-323.584-5.12-444.416 312.32-620.032 26.112-14.336 46.08-20.48 67.072-20.48 20.48 0 40.96 6.144 66.56 19.968 316.416 171.008 314.88 272.384 310.272 608.256z m-336.896-558.592c-16.896-9.216-29.184-13.312-39.936-13.312-10.752 0-22.528 4.096-39.936 13.824C184.832 184.32 185.856 271.36 189.44 594.944c0.512 32.256 0.512 66.56 1.024 103.424 44.544 13.312 92.16 25.6 141.824 36.864 54.272 12.288 114.688 20.48 179.712 24.064 123.392-13.824 217.6-31.744 320-61.44 0-41.472 0.512-79.872 1.024-115.712 4.608-325.632 5.632-402.944-280.576-557.568z"  horiz-adv-x="1024" />

    
    </font>
</defs>
</svg>
